<?xml version="1.0" standalone="no"?>
<!DOCTYPE svg PUBLIC "-//W3C//DTD SVG 20010904//EN"
 "http://www.w3.org/TR/2001/REC-SVG-20010904/DTD/svg10.dtd">
<svg version="1.0" xmlns="http://www.w3.org/2000/svg"
 width="960.000000pt" height="960.000000pt" viewBox="0 0 960.000000 960.000000"
 preserveAspectRatio="xMidYMid meet">
<metadata>
Created by potrace 1.14, written by Peter Selinger 2001-2017
</metadata>
<g transform="translate(0.000000,960.000000) scale(0.100000,-0.100000)"
fill="#000000" stroke="none">
<path d="M4550 9237 c-3 -3 -50 -7 -105 -11 -55 -3 -113 -8 -130 -10 -16 -3
-50 -7 -75 -10 -74 -9 -110 -15 -200 -32 -47 -9 -94 -18 -105 -19 -11 -2 -40
-9 -65 -16 -25 -7 -48 -12 -51 -11 -4 1 -36 -7 -73 -18 -36 -10 -66 -16 -66
-13 0 3 -6 1 -12 -5 -7 -6 -17 -11 -23 -11 -5 -1 -55 -15 -110 -31 -91 -28
-117 -37 -210 -75 -16 -7 -46 -18 -65 -25 -19 -7 -62 -25 -95 -40 -33 -15 -71
-31 -85 -35 -14 -4 -27 -11 -30 -16 -3 -4 -12 -9 -19 -11 -25 -5 -186 -91
-193 -102 -4 -6 -8 -8 -8 -3 0 4 -18 -4 -40 -18 -21 -13 -45 -26 -52 -27 -7
-2 -18 -8 -24 -14 -7 -6 -43 -29 -80 -53 -38 -23 -78 -47 -88 -54 -100 -62
-342 -249 -456 -352 -76 -69 -253 -248 -307 -310 -28 -33 -63 -73 -78 -90 -23
-26 -154 -199 -222 -292 -13 -17 -23 -36 -23 -42 0 -6 -4 -11 -10 -11 -5 0
-10 -4 -10 -9 0 -10 -82 -139 -104 -163 -9 -10 -13 -18 -9 -18 8 0 -17 -23
-82 -75 -27 -22 -63 -51 -79 -65 -55 -47 -201 -195 -241 -245 -21 -28 -42 -52
-45 -55 -4 -3 -39 -54 -79 -115 -72 -108 -161 -281 -216 -424 -30 -75 -103
-171 -131 -171 -8 0 -14 -4 -14 -10 0 -5 -5 -10 -11 -10 -43 0 -232 -167 -284
-251 -15 -24 -31 -46 -34 -49 -21 -16 -85 -191 -101 -275 -8 -46 -6 -291 5
-490 5 -86 14 -282 20 -435 3 -52 7 -140 10 -195 2 -55 7 -152 10 -215 2 -63
7 -167 10 -230 6 -110 11 -232 19 -420 2 -47 7 -143 11 -215 3 -71 8 -168 10
-215 5 -113 11 -154 31 -214 33 -98 98 -192 209 -301 84 -83 94 -91 187 -152
40 -27 85 -61 100 -78 24 -26 67 -101 74 -130 5 -22 59 -146 106 -245 54 -112
70 -131 208 -245 47 -38 90 -74 97 -80 71 -59 412 -323 628 -485 55 -41 105
-79 112 -85 19 -16 35 -28 78 -60 22 -16 45 -33 50 -37 90 -70 116 -88 124
-88 5 0 11 -4 13 -8 2 -5 30 -28 63 -53 33 -24 62 -47 63 -52 2 -4 8 -5 13 -1
5 3 9 1 9 -4 0 -5 22 -24 50 -43 27 -19 50 -37 50 -40 0 -3 18 -13 40 -22 95
-40 116 -48 135 -52 11 -2 36 -9 55 -16 33 -11 57 -19 63 -18 1 0 27 -9 57
-19 30 -11 57 -19 60 -19 3 0 55 -12 115 -26 61 -15 121 -29 135 -31 14 -2 25
-5 25 -6 0 -1 16 -4 35 -6 19 -3 42 -7 50 -11 8 -3 29 -7 45 -9 17 -2 41 -6
55 -9 14 -3 41 -8 60 -11 19 -2 46 -7 60 -9 14 -3 43 -7 65 -10 22 -3 51 -7
65 -10 14 -3 48 -7 75 -10 28 -3 59 -7 70 -9 23 -4 127 -16 195 -22 25 -2 70
-6 100 -9 221 -21 456 -29 845 -29 399 0 645 6 645 14 0 3 19 6 43 7 40 0 100
5 247 18 59 5 245 28 345 42 22 3 49 7 60 8 11 1 21 4 23 5 1 1 16 4 32 5 17
1 31 3 33 4 1 2 14 4 29 6 15 2 78 14 140 26 62 12 122 23 133 25 11 2 49 10
85 19 36 9 73 18 83 21 58 14 65 16 127 33 25 8 52 15 60 16 8 2 16 4 18 5 1
2 7 4 12 5 6 1 12 4 15 5 3 1 8 3 13 4 19 4 93 30 150 53 50 19 230 141 347
235 12 10 152 114 191 143 15 11 42 31 60 45 17 14 44 34 60 45 15 11 32 25
38 30 6 6 28 21 48 35 21 14 38 28 38 33 0 4 4 7 10 7 9 0 28 13 64 45 10 9
114 88 141 107 5 4 26 20 45 36 19 15 76 59 125 97 50 38 95 74 101 80 6 5 26
21 44 35 172 130 286 241 317 308 14 31 25 59 24 61 -2 2 1 7 6 10 10 6 113
250 113 266 0 11 34 55 72 93 13 13 55 44 93 70 150 100 270 224 350 362 20
36 37 66 36 68 0 1 -1 3 0 5 0 1 2 9 4 17 2 8 8 35 14 60 10 43 20 193 26 400
2 52 4 95 5 95 0 0 3 45 5 100 8 204 22 503 41 885 3 58 7 152 9 210 2 58 4
105 5 105 1 0 3 47 5 105 2 58 7 157 10 220 24 454 8 550 -130 770 -48 77
-195 208 -280 250 -47 23 -103 73 -124 109 -14 25 -80 178 -81 186 0 3 -11 28
-25 57 -14 28 -25 58 -25 65 0 7 -4 13 -9 13 -5 0 -16 17 -25 38 -16 36 -36
72 -46 82 -8 8 -29 44 -39 65 -5 11 -21 33 -35 48 -14 15 -26 31 -26 35 0 4
-10 19 -23 34 -12 14 -37 45 -56 67 -66 81 -199 209 -301 291 -24 19 -57 49
-72 65 -32 34 -128 180 -128 195 0 6 -4 10 -8 10 -5 0 -14 12 -21 26 -6 14
-24 42 -40 62 -15 20 -56 75 -91 122 -35 47 -70 93 -79 102 -9 9 -29 34 -46
54 -100 126 -338 361 -490 483 -44 36 -87 71 -95 78 -43 37 -79 63 -88 63 -6
0 -12 4 -14 8 -1 5 -32 28 -68 53 -35 24 -71 50 -78 57 -7 6 -20 12 -28 12 -8
0 -14 4 -14 10 0 5 -11 12 -25 16 -14 3 -25 10 -25 14 0 4 -13 13 -30 20 -16
7 -30 16 -30 21 0 5 -4 9 -10 9 -5 0 -33 14 -62 31 -29 17 -57 32 -63 33 -5 1
-29 14 -52 29 -24 15 -44 27 -47 27 -2 0 -53 23 -112 51 -150 70 -175 81 -188
83 -6 1 -28 10 -50 19 -21 9 -40 17 -42 17 -1 0 -15 5 -31 12 -15 6 -31 12
-35 13 -5 2 -9 3 -10 5 -2 1 -10 3 -18 5 -8 2 -58 18 -110 35 -111 37 -294 85
-400 105 -97 18 -130 25 -155 30 -25 5 -91 15 -125 19 -14 2 -56 6 -95 11 -38
4 -83 9 -100 12 -42 6 -559 15 -565 10z m315 -803 c159 -2 344 -15 435 -31 19
-3 44 -7 55 -8 21 -1 95 -14 130 -22 11 -3 34 -6 50 -8 35 -4 42 -6 155 -35
47 -12 94 -23 105 -25 11 -2 58 -15 105 -30 47 -14 92 -28 100 -30 8 -2 16 -4
18 -5 1 -2 7 -4 12 -5 6 -1 11 -3 13 -5 1 -1 9 -3 17 -5 112 -27 541 -223 688
-314 172 -106 335 -217 412 -281 14 -11 36 -29 50 -40 80 -64 129 -109 250
-230 146 -145 209 -216 311 -350 35 -47 67 -86 72 -88 4 -2 7 -10 7 -17 0 -8
6 -20 13 -27 26 -26 118 -177 127 -209 5 -18 12 -51 15 -73 3 -23 8 -48 10
-56 2 -8 7 -28 10 -45 2 -16 7 -41 10 -55 3 -14 7 -38 10 -55 5 -30 9 -51 27
-140 5 -27 11 -59 13 -70 11 -63 16 -93 21 -117 3 -15 7 -48 9 -74 3 -26 7
-63 9 -83 3 -20 7 -58 11 -86 3 -27 8 -68 11 -90 2 -22 7 -60 9 -85 2 -25 6
-55 9 -66 7 -34 21 -284 31 -553 2 -62 6 -116 9 -118 3 -3 1 -14 -4 -24 -7
-12 -7 -20 0 -24 6 -4 8 -11 4 -16 -3 -6 -8 -128 -10 -272 -2 -144 -6 -280 -8
-302 -3 -22 -8 -74 -12 -115 -7 -87 -9 -112 -18 -200 -4 -36 -9 -94 -11 -130
-2 -36 -5 -65 -5 -65 -1 0 -3 -16 -6 -35 -2 -19 -14 -93 -25 -165 -26 -167
-28 -175 -34 -205 -3 -14 -7 -41 -9 -60 -10 -73 -18 -118 -43 -225 -14 -60
-27 -121 -29 -135 -3 -14 -9 -41 -14 -60 -5 -19 -11 -46 -14 -60 -3 -14 -10
-40 -15 -59 -6 -19 -9 -37 -6 -39 3 -3 0 -11 -6 -19 -6 -7 -9 -13 -6 -13 8 0
-30 -135 -47 -168 -33 -64 -82 -99 -257 -185 -96 -46 -219 -103 -274 -126 -55
-23 -109 -46 -120 -51 -43 -20 -151 -63 -175 -70 -14 -5 -97 -33 -184 -64 -88
-31 -169 -58 -180 -61 -12 -2 -61 -16 -111 -30 -117 -34 -195 -56 -218 -61
-10 -2 -28 -6 -39 -10 -11 -3 -32 -8 -46 -10 -45 -8 -67 -12 -67 -14 0 -1 -7
-3 -15 -5 -8 -1 -58 -12 -110 -23 -84 -18 -135 -28 -205 -37 -11 -2 -60 -10
-110 -18 -118 -21 -150 -25 -221 -32 -99 -10 -137 -14 -174 -19 -172 -26
-1000 -27 -1215 -1 -22 2 -70 7 -106 10 -37 3 -77 8 -90 10 -13 3 -49 8 -79
11 -55 5 -84 9 -130 19 -13 2 -40 7 -60 10 -20 3 -45 7 -57 9 -11 3 -38 7 -59
11 -59 10 -126 22 -154 29 -26 6 -54 13 -93 21 -70 15 -242 57 -302 74 -38 11
-97 27 -130 36 -68 18 -290 91 -320 105 -11 5 -56 21 -100 36 -44 14 -98 35
-121 45 -22 10 -65 27 -94 39 -29 12 -73 30 -96 41 -24 10 -45 19 -48 19 -22
0 -401 197 -429 223 -36 33 -74 97 -82 138 -7 34 -21 97 -30 134 -7 28 -24
105 -31 135 -3 14 -9 41 -14 60 -5 19 -11 46 -14 60 -3 14 -12 54 -21 90 -8
36 -20 92 -26 125 -5 33 -12 71 -15 85 -3 14 -7 41 -9 60 -7 52 -12 81 -19
120 -11 63 -16 94 -21 135 -3 22 -7 51 -10 65 -10 49 -18 123 -30 275 -4 44
-9 98 -11 120 -20 181 -24 254 -29 445 -5 239 -5 498 0 600 3 47 7 144 10 215
3 72 8 148 10 170 3 22 7 63 9 90 2 28 9 86 14 130 22 164 24 181 27 205 9 96
18 168 21 185 2 11 6 31 9 45 3 14 7 36 10 50 3 14 8 41 11 60 3 19 7 42 9 50
2 8 7 31 10 50 3 19 19 104 35 189 32 165 39 182 136 324 30 43 54 80 54 83 0
2 9 14 19 26 10 13 55 68 99 123 43 55 102 125 131 155 28 30 51 59 51 63 0 5
5 5 10 2 5 -3 10 -2 10 4 0 8 52 60 177 178 13 12 56 48 96 80 39 32 80 66 91
75 38 35 218 159 310 215 53 32 109 65 124 75 35 21 281 148 285 147 1 -1 29
11 62 26 77 34 108 47 120 51 6 2 53 19 105 39 52 21 102 38 110 40 8 2 44 13
80 24 116 38 130 42 158 47 15 3 41 9 57 14 17 5 41 12 55 14 14 3 42 10 63
15 20 5 37 7 37 4 0 -2 6 -1 13 4 6 4 21 8 32 9 11 1 61 9 110 17 50 9 115 19
145 22 30 3 66 8 80 10 36 6 157 15 284 20 59 2 111 7 114 10 3 3 8 2 11 -2 3
-5 60 -9 126 -9z"/>
<path d="M2995 4341 c-34 -6 -64 -32 -74 -64 -7 -20 -11 -131 -10 -277 1 -329
-15 -312 283 -313 222 0 261 -8 312 -64 52 -58 57 -82 59 -305 2 -173 5 -212
19 -233 36 -56 -22 -53 1188 -51 l1117 1 28 21 c15 12 28 25 28 30 0 5 4 15 9
22 11 18 14 112 3 112 -4 0 -5 5 -1 11 4 6 7 77 8 158 2 158 7 179 63 235 56
57 85 63 305 64 128 0 211 5 229 12 51 22 57 51 56 320 0 270 -3 288 -60 311
-28 12 -456 20 -514 11 -12 -2 -34 -17 -50 -33 l-30 -28 1 -136 c1 -74 -3
-135 -8 -135 -5 0 -4 -6 1 -12 16 -23 4 -118 -21 -166 -26 -51 -101 -117 -147
-131 -32 -10 -269 -13 -1034 -13 -990 1 -993 1 -1034 22 -74 37 -133 104 -146
165 -4 17 -8 111 -9 210 -2 99 -6 189 -10 200 -4 11 -19 29 -33 39 -23 17 -47
19 -268 20 -133 1 -250 -1 -260 -3z"/>
</g>
</svg>
