<svg width="42" height="48" viewBox="0 0 42 48" fill="none" xmlns="http://www.w3.org/2000/svg">
<path d="M21 0L41.7846 11.9959V35.9876L21 47.9835L0.215391 35.9876L0.215391 11.9959L21 0Z" fill="#5085EC"/>
<path d="M20.8987 22.6646L41.7826 11.9929L41.7875 35.9806L20.9936 48L20.8987 22.6646Z" fill="#235DCF"/>
<path d="M4.77588 33.2215L4.77588 38.6029L21.01 47.9909L21.01 45.3035L21.01 42.5923L4.77588 33.2215Z" fill="#16253D"/>
<path d="M21 42.6022L21 47.9835L41.7786 35.9875L41.7786 33.3002L41.7786 30.5889L21 42.6022Z" fill="#16253D"/>
<path d="M0.209351 35.9806L4.77545 38.6268L4.90804 14.4191L0.213257 12.0131L0.209351 35.9806Z" fill="#16253D"/>
<path d="M16.4376 2.63544L21.0037 -0.0107075L41.7736 12.0104L37.0788 14.4165L16.4376 2.63544Z" fill="#16253D"/>
<path d="M25.5376 2.63544L20.9715 -0.0107075L0.20166 12.0104L4.89645 14.4165L25.5376 2.63544Z" fill="#16253D"/>
</svg>
