<?xml version="1.0" standalone="no"?>
<!DOCTYPE svg PUBLIC "-//W3C//DTD SVG 20010904//EN"
 "http://www.w3.org/TR/2001/REC-SVG-20010904/DTD/svg10.dtd">
<svg version="1.0" xmlns="http://www.w3.org/2000/svg"
 width="700.000000pt" height="700.000000pt" viewBox="0 0 700.000000 700.000000"
 preserveAspectRatio="xMidYMid meet">
<metadata>
Created by potrace 1.11, written by Peter Selinger 2001-2013
</metadata>
<g transform="translate(0.000000,700.000000) scale(0.100000,-0.100000)"
fill="#000000" stroke="none">
<path d="M3435 6863 c-33 -20 -80 -46 -105 -60 -45 -25 -82 -45 -175 -97 -27
-16 -219 -123 -425 -238 -206 -116 -391 -219 -410 -230 -19 -12 -55 -32 -80
-46 -135 -75 -480 -269 -655 -367 -195 -110 -415 -233 -505 -283 -43 -24 -136
-76 -245 -137 -81 -45 -206 -115 -265 -148 -30 -16 -66 -37 -78 -46 l-24 -17
1 -1670 c0 -918 0 -1681 0 -1695 1 -22 20 -36 154 -111 340 -193 456 -257 532
-298 44 -23 85 -46 90 -50 6 -4 37 -22 70 -40 55 -30 731 -408 850 -475 28
-16 84 -47 125 -70 318 -178 619 -347 871 -488 163 -92 308 -171 321 -177 22
-10 73 16 519 266 272 152 514 288 539 302 41 23 206 116 340 191 30 17 100
56 155 86 55 31 107 60 115 65 8 6 139 79 290 163 151 84 458 256 683 381
l407 228 1 42 c4 300 -3 3352 -8 3357 -9 9 -105 63 -313 177 -25 14 -49 28
-55 32 -5 4 -35 21 -65 37 -61 33 -86 47 -310 173 -85 48 -175 98 -200 112
-164 92 -1312 734 -1495 838 -176 99 -547 306 -570 318 -16 8 -32 3 -80 -25z"/>
</g>
</svg>
