<svg width="59" height="67" viewBox="0 0 59 67" fill="none" xmlns="http://www.w3.org/2000/svg">
<path d="M29.5 0L59 16.5527V49.658L44.25 57.9342L29.5 66.2105L0 49.658V16.5527L29.5 0Z" fill="white"/>
<path d="M29.4998 3.67786L55.7221 18.3863V47.8032L29.4998 62.5114L3.27759 47.8032V18.3863L29.4998 3.67786Z" fill="#5985E3"/>
<path d="M29.3711 31.467L55.7186 18.3822L55.7248 47.7941L29.4907 62.5313L29.3711 31.467Z" fill="#386DE6"/>
<path fill-rule="evenodd" clip-rule="evenodd" d="M29.4838 10.1002L49.7842 21.3607L55.7073 18.4107L29.5037 3.67126L29.4838 3.68251L29.4639 3.67126L3.26025 18.4107L3.27501 18.418L3.27008 47.7971L9.03075 51.0416L9.03172 50.8705V51.0139L29.513 62.5248V62.5064L55.7135 47.8057V44.5106V41.1864L29.513 55.9082V55.9053L9.06799 44.4359L9.19804 21.3602L9.19089 21.3567L29.4838 10.1002Z" fill="#17181A"/>
</svg>
