<svg width="16" height="16" viewBox="0 0 16 16" fill="none" xmlns="http://www.w3.org/2000/svg">
<path fill-rule="evenodd" clip-rule="evenodd" d="M8 1C4.13401 1 1 4.13401 1 8C1 11.866 4.13401 15 8 15C11.866 15 15 11.866 15 8C15 4.13401 11.866 1 8 1ZM8 1.30337e-06C3.58172 1.49649e-06 4.10854e-07 3.58172 6.03983e-07 8C7.97112e-07 12.4183 3.58172 16 8 16C12.4183 16 16 12.4183 16 8C16 3.58172 12.4183 1.11024e-06 8 1.30337e-06ZM11.1667 5.33333L11.1667 9.83333C11.1667 10.1095 10.9428 10.3333 10.6667 10.3333C10.3905 10.3333 10.1667 10.1095 10.1667 9.83333L10.1667 6.54044L5.68689 11.0202L4.97978 10.3131L9.45956 5.83333L6.16667 5.83333C5.89052 5.83333 5.66667 5.60948 5.66667 5.33333C5.66667 5.05719 5.89052 4.83333 6.16667 4.83333L10.6667 4.83333C10.9428 4.83333 11.1667 5.05719 11.1667 5.33333Z" fill="#F8FAFF"/>
</svg>
