<svg width="863" height="314" viewBox="0 0 863 314" fill="none" xmlns="http://www.w3.org/2000/svg">
<path d="M857.613 167.921C854.272 158.746 849.508 150.933 843.312 144.497C837.108 138.058 829.656 133.053 820.957 129.475C812.249 125.898 802.536 124.109 791.812 124.109C778.933 124.109 767.965 126.434 758.908 131.086C749.841 135.737 743.044 140.683 738.525 145.927V127.375C729.911 133.525 711.587 138.07 689.52 139.171V310.802H739.24V210.661C739.24 197.785 742.931 187.773 750.321 180.617C757.712 173.466 767.493 169.89 779.648 169.89C790.381 169.89 798.663 173.287 804.508 180.081C810.347 186.878 813.269 195.761 813.269 206.726V310.802H862.623V198.143C862.623 187.178 860.956 177.106 857.613 167.921ZM619.784 310.802H669.495V139.211C647.139 138.182 628.528 133.619 619.784 127.423V310.802ZM498.897 310.801V127.329H548.616V152.363C554.811 144.022 562.385 137.342 571.32 132.338C580.264 127.329 590.456 124.825 601.905 124.825V174.897C583.536 174.897 570.125 179.606 561.671 189.025C553.197 198.445 548.975 211.139 548.975 227.113V310.801H498.897ZM379.808 269.315C386.963 269.315 393.577 268.062 399.659 265.559C405.74 263.054 411.037 259.542 415.575 255.009C420.095 250.485 423.619 245.235 426.124 239.273C428.628 233.317 429.876 226.877 429.876 219.962C429.876 213.286 428.567 206.903 425.941 200.826C423.313 194.745 419.745 189.503 415.217 185.089C410.679 180.678 405.383 177.167 399.301 174.539C393.219 171.918 386.719 170.605 379.808 170.605C372.888 170.605 366.509 171.918 360.672 174.539C354.825 177.167 349.764 180.678 345.472 185.089C341.179 189.503 337.784 194.745 335.28 200.826C332.776 206.903 331.528 213.286 331.528 219.962C331.528 226.877 332.776 233.317 335.28 239.273C337.784 245.235 341.179 250.485 345.472 255.009C349.764 259.542 354.825 263.054 360.672 265.559C366.509 268.062 372.888 269.315 379.808 269.315ZM429.16 297.211C422.721 302.221 414.797 306.151 405.383 309.013C395.959 311.875 386.003 313.306 375.515 313.306C362.88 313.306 350.96 310.919 339.748 306.151C328.544 301.387 318.771 294.83 310.428 286.483C302.079 278.137 295.403 268.302 290.393 256.977C285.385 245.655 282.891 233.317 282.891 219.962C282.891 206.851 285.385 194.513 290.393 182.943C295.403 171.382 302.079 161.367 310.428 152.899C318.771 144.441 328.544 137.761 339.748 132.874C350.96 127.987 362.88 125.539 375.515 125.539C386.003 125.539 395.959 127.031 405.383 130.011C414.797 132.997 422.721 136.983 429.16 141.993V65.8166H478.871V310.801H429.16V297.211ZM216.007 65.8166H266.084V310.801H216.007V65.8166ZM96.9174 170.605C89.9987 170.605 83.6187 171.918 77.7813 174.539C71.936 177.167 66.8747 180.678 62.5814 185.089C58.288 189.503 54.8934 194.745 52.3907 200.826C49.8854 206.903 48.6387 213.286 48.6387 219.962C48.6387 226.877 49.8854 233.317 52.3907 239.273C54.8934 245.235 58.288 250.485 62.5814 255.009C66.8747 259.542 71.936 263.054 77.7813 265.559C83.6187 268.062 89.9987 269.315 96.9174 269.315C104.073 269.315 110.687 268.062 116.769 265.559C122.851 263.054 128.147 259.542 132.684 255.009C137.204 250.485 140.729 245.235 143.233 239.273C145.739 233.317 146.987 226.877 146.987 219.962C146.987 213.286 145.677 206.903 143.051 200.826C140.424 194.745 136.856 189.503 132.327 185.089C127.789 180.678 122.493 177.167 116.411 174.539C110.329 171.918 103.828 170.605 96.9174 170.605ZM146.271 297.211C139.831 302.221 131.908 306.151 122.493 309.013C113.069 311.875 103.113 313.306 92.624 313.306C79.9893 313.306 68.0707 310.919 56.8573 306.151C45.6533 301.387 35.8813 294.83 27.5387 286.483C19.188 278.137 12.5134 268.302 7.50407 256.977C2.49607 245.655 0 233.317 0 219.962C0 206.851 2.49607 194.513 7.50407 182.943C12.5134 171.382 19.188 161.367 27.5387 152.899C35.8813 144.441 45.6533 137.761 56.8573 132.874C68.0707 127.987 79.9893 125.539 92.624 125.539C103.113 125.539 113.069 127.031 122.493 130.011C131.908 132.997 139.831 136.983 146.271 141.993V127.329H195.981V310.801H146.271V297.211Z" fill="#F7FAFD"/>
<path d="M721.93 61.6093L721.267 68.9359L720.1 76.2119L718.432 83.4079L718.368 83.6133L718.291 83.8159L718.202 84.0119L718.098 84.2053L717.98 84.3906L717.85 84.5693L717.708 84.7413L717.555 84.9039L717.391 85.0573L717.216 85.2026L717.031 85.3373L716.838 85.4613L716.636 85.5746L712.57 87.5533L708.375 89.3013L704.067 90.8119L699.663 92.0813L695.18 93.1013L690.635 93.8706L686.046 94.3853L681.511 94.6279L681.43 94.6426H679.118H676.806L676.726 94.6279L672.19 94.3853L667.6 93.8706L663.056 93.1013L658.572 92.0813L654.17 90.8119L649.86 89.3013L645.666 87.5533L641.599 85.5746L641.399 85.4613L641.204 85.3373L641.019 85.2026L640.846 85.0573L640.68 84.9039L640.527 84.7413L640.386 84.5693L640.255 84.3906L640.138 84.2053L640.034 84.0119L639.944 83.8159L639.867 83.6133L639.803 83.4079L638.135 76.2119L636.968 68.9359L636.306 61.6093L636.151 54.2599L636.504 46.9159L637.364 39.6066L638.728 32.3586L638.78 32.1599L638.844 31.9626L638.899 31.8266L638.922 31.7693L639.012 31.5813L639.116 31.3986L640.611 29.1013L642.268 26.8973L644.083 24.7946L646.046 22.8026L646.876 22.0626L648.148 20.9293L650.383 19.1839L652.738 17.5706L655.206 16.0999L657.775 14.7759L660.434 13.6053L663.172 12.5933L665.978 11.7426L668.84 11.0573L671.744 10.5413L674.682 10.1946L677.636 10.0226H679.118H680.599L683.554 10.1946L686.491 10.5413L689.396 11.0573L692.258 11.7426L695.064 12.5933L697.802 13.6053L700.46 14.7759L703.03 16.0999L705.498 17.5706L707.852 19.1839L710.087 20.9293L711.359 22.0626L712.19 22.8026L714.152 24.7946L715.967 26.8973L717.624 29.1013L719.12 31.3986L719.223 31.5813L719.314 31.7693L719.338 31.8266L719.391 31.9626L719.456 32.1599L719.508 32.3586L720.871 39.6066L721.732 46.9159L722.084 54.2599L721.93 61.6093ZM738.642 47.0533L738.571 46.4239L738.462 45.8026L738.312 45.1866L738.124 44.5813L737.896 43.9893L737.631 43.4119L737.33 42.8506L736.994 42.3093L736.624 41.7879L736.22 41.2906L735.786 40.8186L735.323 40.3733L734.831 39.9573L734.314 39.5706L733.774 39.2159L733.008 38.7773L732.811 38.6479L732.624 38.5079L732.446 38.3559L732.276 38.1946L732.119 38.0239L731.972 37.8426L731.839 37.6533L731.716 37.4559L731.607 37.2519L731.511 37.0426L731.428 36.8279L730.842 35.3039L730.154 33.8213L729.366 32.3853L728.484 31.0013L727.511 29.6759L726.451 28.4146L725.306 27.2239L724.084 26.1093L722.791 25.0719L722.624 24.9399L722.464 24.7986L722.314 24.6493L722.174 24.4919L722.04 24.3266L721.918 24.1546L721.806 23.9759L720.17 21.3906L718.363 18.9119L716.399 16.5493L714.283 14.312L712.022 12.2106L709.628 10.2519L707.111 8.44527L704.479 6.7986L701.744 5.31593L698.918 4.00661L696.01 2.87328L693.034 1.92261L690 1.15727L686.923 0.579941L683.814 0.193275L680.684 -6.10352e-05H679.118H677.551L674.422 0.193275L671.312 0.579941L668.235 1.15727L665.202 1.92261L662.227 2.87328L659.318 4.00661L656.491 5.31593L653.756 6.7986L651.124 8.44527L648.607 10.2519L646.214 12.2106L643.954 14.312L641.838 16.5493L639.872 18.9119L638.067 21.3906L636.43 23.9759L636.318 24.1546L636.195 24.3266L636.063 24.4919L635.922 24.6493L635.772 24.7986L635.614 24.9399L635.446 25.0719L634.151 26.1093L632.93 27.2239L631.787 28.4146L630.726 29.6759L629.751 31.0013L628.87 32.3853L628.082 33.8213L627.395 35.3039L626.807 36.8279L626.726 37.0426L626.628 37.2519L626.519 37.4559L626.398 37.6533L626.263 37.8426L626.118 38.0239L625.959 38.1946L625.791 38.3559L625.612 38.5079L625.424 38.6479L625.228 38.7773L624.462 39.2159L623.922 39.5706L623.404 39.9573L622.912 40.3733L622.451 40.8186L622.015 41.2906L621.612 41.7879L621.242 42.3093L620.906 42.8506L620.604 43.4119L620.34 43.9893L620.112 44.5813L619.923 45.1866L619.774 45.8026L619.664 46.4239L619.594 47.0533L619.564 47.6839L619.574 48.3159L620.911 77.1599L620.946 77.5986L621.008 78.0359L621.098 78.4693L621.214 78.8946L621.356 79.3133L621.527 79.7226L621.722 80.1226L621.942 80.5079L622.186 80.8813L622.702 81.5719L623.259 82.2319L623.858 82.8573L624.495 83.4466L625.167 83.9973L625.872 84.5079L626.806 85.1013L626.994 85.2373L627.174 85.3853L627.343 85.5426L627.502 85.7106L627.65 85.8866L627.788 86.0719L627.911 86.2653L628.024 86.4653L628.124 86.6706L629.168 89.2453L630.271 91.5479C631.091 93.0226 649.552 106.62 649.552 106.62C649.552 106.62 659.136 110.992 679.118 110.992C699.099 110.992 708.683 106.62 708.683 106.62C708.683 106.62 727.144 93.0226 727.964 91.5479L729.068 89.2453L730.112 86.6706L730.211 86.4653L730.324 86.2653L730.448 86.0719L730.586 85.8866L730.734 85.7106L730.894 85.5426L731.063 85.3853L731.242 85.2373L731.43 85.1013L732.363 84.5079L733.068 83.9973L733.74 83.4466L734.378 82.8573L734.976 82.2319L735.534 81.5719L736.05 80.8813L736.294 80.5079L736.514 80.1226L736.708 79.7226L736.879 79.3133L737.022 78.8946L737.138 78.4693L737.228 78.0359L737.291 77.5986L737.324 77.1599L738.662 48.3159L738.672 47.6839L738.642 47.0533Z" fill="#F7FAFD"/>
<path d="M701.005 61.2059H695.367C694.661 61.2059 694.089 61.7792 694.089 62.4845V66.3712C694.089 67.0792 693.808 67.7592 693.307 68.2605L692.948 68.6192C692.447 69.1205 691.767 69.4005 691.059 69.4005H667.177C666.469 69.4005 665.789 69.1205 665.288 68.6192L664.929 68.2605C664.428 67.7592 664.147 67.0792 664.147 66.3712V62.4845C664.147 61.7792 663.575 61.2059 662.868 61.2059H657.231C656.525 61.2059 655.952 61.7792 655.952 62.4845V68.1219C655.952 68.8285 656.525 69.4005 657.231 69.4005H661.476C662.184 69.4005 662.864 69.6819 663.365 70.1832C663.867 70.6845 664.147 71.3645 664.147 72.0725V76.1965C664.147 76.9659 664.776 77.5952 665.545 77.5952H665.549H692.687H692.689C693.46 77.5952 694.089 76.9659 694.089 76.1965V72.0725C694.089 71.3645 694.369 70.6845 694.871 70.1832C695.372 69.6819 696.052 69.4005 696.76 69.4005H701.005C701.711 69.4005 702.284 68.8285 702.284 68.1219V62.4845C702.284 61.7792 701.711 61.2059 701.005 61.2059Z" fill="#F7FAFD"/>
</svg>
