<svg width="11" height="47" viewBox="0 0 11 47" fill="none" xmlns="http://www.w3.org/2000/svg">
<path d="M9.72 31.792H2.04V0.688H9.72V31.792ZM0.76 41.52C0.76 40.1547 1.25067 38.9813 2.232 38C3.256 37.0187 4.472 36.528 5.88 36.528C7.24533 36.528 8.44 36.9973 9.464 37.936C10.488 38.8747 11 40.0267 11 41.392C11 42.7573 10.488 43.9307 9.464 44.912C8.48267 45.8933 7.288 46.384 5.88 46.384C5.19733 46.384 4.536 46.256 3.896 46C3.29867 45.744 2.76533 45.4027 2.296 44.976C1.82667 44.5493 1.44267 44.0373 1.144 43.44C0.888 42.8427 0.76 42.2027 0.76 41.52Z" fill="#F29C38"/>
</svg>
