<svg width="16" height="16" viewBox="0 0 16 16" fill="none" xmlns="http://www.w3.org/2000/svg">
<path d="M8 0C6.41775 0 4.87103 0.469192 3.55544 1.34824C2.23985 2.22729 1.21447 3.47672 0.608967 4.93853C0.00346627 6.40034 -0.15496 8.00887 0.153721 9.56072C0.462403 11.1126 1.22433 12.538 2.34315 13.6569C3.46197 14.7757 4.88743 15.5376 6.43928 15.8463C7.99113 16.155 9.59966 15.9965 11.0615 15.391C12.5233 14.7855 13.7727 13.7602 14.6518 12.4446C15.5308 11.129 16 9.58225 16 8C15.9976 5.87901 15.1539 3.84558 13.6542 2.34582C12.1544 0.846052 10.121 0.00241984 8 0ZM1.14286 8C1.14442 7.22082 1.27972 6.44769 1.54286 5.71428H4.57143L7.42857 8L5.82857 10.1103C5.74607 10.2203 5.70602 10.3564 5.71578 10.4936C5.72554 10.6308 5.78446 10.7599 5.88172 10.8571L7.42857 12.5714V14.8286C5.71615 14.6841 4.12026 13.9023 2.95638 12.6379C1.79251 11.3735 1.14536 9.71851 1.14286 8ZM11.1057 14.1057L12.5606 9.70571C12.5813 9.60167 12.5727 9.49392 12.5356 9.39451C12.4986 9.2951 12.4346 9.20796 12.3509 9.14286L7.42857 5.14286L8.57143 4H11.5886C11.7085 3.99991 11.8253 3.96212 11.9225 3.89197C12.0197 3.82183 12.0924 3.72288 12.1303 3.60914L12.4131 2.76C13.2801 3.48748 13.953 4.41864 14.3717 5.47007C14.7904 6.5215 14.9417 7.66036 14.8121 8.78463C14.6826 9.90891 14.2762 10.9835 13.6293 11.9121C12.9825 12.8408 12.1154 13.5945 11.1057 14.1057Z" fill="#651CE4"/>
</svg>
