<svg width="48" height="48" viewBox="0 0 48 48" fill="none" xmlns="http://www.w3.org/2000/svg">
<g clip-path="url(#clip0)">
<path fill-rule="evenodd" clip-rule="evenodd" d="M23.9463 32.8273C21.6593 32.8236 19.4671 31.9134 17.8502 30.296C16.2332 28.6787 15.3235 26.4863 15.3203 24.1993C15.323 21.9117 16.2328 19.7184 17.8502 18.1006C19.4676 16.4828 21.6607 15.5725 23.9483 15.5693C26.2363 15.572 28.4299 16.4821 30.0477 18.0999C31.6656 19.7178 32.5757 21.9113 32.5783 24.1993C32.5751 26.487 31.6648 28.68 30.047 30.2975C28.4292 31.9149 26.236 32.8247 23.9483 32.8273H23.9463Z" fill="#4285F4"/>
<path fill-rule="evenodd" clip-rule="evenodd" d="M27.5809 34.3615C25.7811 35.0147 23.8421 35.1874 21.9552 34.8627C20.0683 34.5379 18.2987 33.7268 16.8209 32.5095C15.2276 31.1955 14.0368 29.4592 13.3849 27.4995L13.3809 27.4875L3.87087 11.0195C0.460441 16.238 -0.764796 22.5868 0.458875 28.6995C1.05978 31.7876 2.26714 34.7258 4.0111 37.3441C5.75505 39.9625 8.00097 42.2089 10.6189 43.9535C13.3676 45.8013 16.4718 47.0547 19.7329 47.6335L27.5809 34.3635V34.3615Z" fill="#4AAE48"/>
<path fill-rule="evenodd" clip-rule="evenodd" d="M45.5184 13.4137C43.7195 9.79461 41.0413 6.68465 37.7293 4.36856C34.4172 2.05247 30.5771 0.604265 26.5604 0.156533C22.5437 -0.2912 18.4789 0.275851 14.7382 1.80577C10.9974 3.33568 7.70018 5.77957 5.14844 8.91368L13.1804 22.8257C13.511 20.2498 14.7598 17.8797 16.6975 16.1507C18.6352 14.4217 21.1317 13.4499 23.7284 13.4137H45.5184Z" fill="#EA3939"/>
<path fill-rule="evenodd" clip-rule="evenodd" d="M23.8527 47.9993C29.8727 47.9993 35.6347 45.7413 40.0727 41.6433C44.5277 37.5404 47.256 31.8972 47.7047 25.8573C47.963 22.3606 47.4552 18.8496 46.2167 15.5693H30.5047C31.8137 16.6048 32.8701 17.9242 33.5943 19.428C34.3184 20.9317 34.6913 22.5803 34.6847 24.2493C34.6688 26.7032 33.8371 29.0821 32.3207 31.0113L22.3047 47.9513C22.8207 47.9833 23.3407 47.9993 23.8527 47.9993Z" fill="#FED14B"/>
</g>
<defs>
<clipPath id="clip0">
<rect width="48" height="48" fill="white"/>
</clipPath>
</defs>
</svg>
