<svg width="18" height="13" viewBox="0 0 18 13" fill="none" xmlns="http://www.w3.org/2000/svg">
<path d="M11.5 6.5C11.5 7.16304 11.2366 7.79893 10.7678 8.26777C10.2989 8.73661 9.66304 9 9 9C8.33696 9 7.70107 8.73661 7.23223 8.26777C6.76339 7.79893 6.5 7.16304 6.5 6.5C6.5 5.83696 6.76339 5.20107 7.23223 4.73223C7.70107 4.26339 8.33696 4 9 4C9.66304 4 10.2989 4.26339 10.7678 4.73223C11.2366 5.20107 11.5 5.83696 11.5 6.5Z" fill="#96999C"/>
<path d="M1 6.5C1 6.5 4 1 9 1C14 1 17 6.5 17 6.5C17 6.5 14 12 9 12C4 12 1 6.5 1 6.5ZM9 10C9.92826 10 10.8185 9.63125 11.4749 8.97487C12.1313 8.3185 12.5 7.42826 12.5 6.5C12.5 5.57174 12.1313 4.6815 11.4749 4.02513C10.8185 3.36875 9.92826 3 9 3C8.07174 3 7.1815 3.36875 6.52513 4.02513C5.86875 4.6815 5.5 5.57174 5.5 6.5C5.5 7.42826 5.86875 8.3185 6.52513 8.97487C7.1815 9.63125 8.07174 10 9 10Z" fill="#96999C"/>
<path d="M1 12L17 1" stroke="#3A475C" stroke-width="2"/>
</svg>
