<svg width="43" height="43" viewBox="0 0 43 43" fill="none" xmlns="http://www.w3.org/2000/svg">
<circle cx="21.5984" cy="21.5984" r="20.9016" fill="#CC9F02"/>
<circle cx="20.9016" cy="20.9016" r="20.9016" fill="#FFC90A"/>
<g filter="url(#filter0_i)">
<circle cx="20.9016" cy="20.9016" r="17.9631" fill="#F1C21B"/>
</g>
<g filter="url(#filter1_d)">
<path fill-rule="evenodd" clip-rule="evenodd" d="M30.1737 15.4123L20.87 10.1021L11.5669 15.4119L11.5717 15.4144L11.5121 26.2973L20.8745 31.7014L20.832 20.2397L30.1737 15.4123ZM29.4291 26.7675L30.2801 26.2755L30.2801 26.2716L29.4291 26.7675ZM30.1854 15.4091L32.8943 14.0195L32.8947 27.888L32.8928 27.8868L20.8829 34.8205V34.8281L11.4952 29.3993L11.4951 29.4129L8.85462 27.8828L8.85688 14.0251L8.8501 14.0217L20.8607 7.07019L20.87 7.0756L20.8793 7.07019L32.8899 14.0217L30.1853 15.4077L30.1854 15.4091Z" fill="#F7D43D"/>
</g>
<defs>
<filter id="filter0_i" x="2.93848" y="2.93854" width="35.9262" height="35.9262" filterUnits="userSpaceOnUse" color-interpolation-filters="sRGB">
<feFlood flood-opacity="0" result="BackgroundImageFix"/>
<feBlend mode="normal" in="SourceGraphic" in2="BackgroundImageFix" result="shape"/>
<feColorMatrix in="SourceAlpha" type="matrix" values="0 0 0 0 0 0 0 0 0 0 0 0 0 0 0 0 0 0 127 0" result="hardAlpha"/>
<feOffset/>
<feGaussianBlur stdDeviation="0.25"/>
<feComposite in2="hardAlpha" operator="arithmetic" k2="-1" k3="1"/>
<feColorMatrix type="matrix" values="0 0 0 0 0 0 0 0 0 0 0 0 0 0 0 0 0 0 0.25 0"/>
<feBlend mode="normal" in2="shape" result="effect1_innerShadow"/>
</filter>
<filter id="filter1_d" x="8.8501" y="7.07019" width="24.0446" height="28.258" filterUnits="userSpaceOnUse" color-interpolation-filters="sRGB">
<feFlood flood-opacity="0" result="BackgroundImageFix"/>
<feColorMatrix in="SourceAlpha" type="matrix" values="0 0 0 0 0 0 0 0 0 0 0 0 0 0 0 0 0 0 127 0"/>
<feOffset dy="0.5"/>
<feColorMatrix type="matrix" values="0 0 0 0 0.808333 0 0 0 0 0.633761 0 0 0 0 0.0134722 0 0 0 1 0"/>
<feBlend mode="normal" in2="BackgroundImageFix" result="effect1_dropShadow"/>
<feBlend mode="normal" in="SourceGraphic" in2="effect1_dropShadow" result="shape"/>
</filter>
</defs>
</svg>
