<svg width="14" height="14" viewBox="0 0 14 14" fill="none" xmlns="http://www.w3.org/2000/svg">
<path d="M10.5 1.38451C10.5 1.30451 10.4842 1.22531 10.4534 1.15145C10.4227 1.07759 10.3777 1.01054 10.3209 0.954152C10.2642 0.897767 10.1968 0.853161 10.1228 0.822903C10.0487 0.792645 9.96943 0.777332 9.88943 0.777844H2.1661C2.0861 0.777332 2.0068 0.792645 1.93274 0.822903C1.85869 0.853161 1.79135 0.897767 1.7346 0.954152C1.67786 1.01054 1.63282 1.07759 1.60209 1.15145C1.57136 1.22531 1.55554 1.30451 1.55554 1.38451V11.0601C1.55554 11.1401 1.57136 11.2193 1.60209 11.2931C1.63282 11.367 1.67786 11.434 1.7346 11.4904C1.79135 11.5468 1.85869 11.5914 1.93274 11.6217C2.0068 11.6519 2.0861 11.6672 2.1661 11.6667H2.36832V1.58284H10.5V1.38451Z" fill="#ECF0F3"/>
<path d="M11.4722 2.33325H3.69442C3.37225 2.33325 3.11108 2.59442 3.11108 2.91659V12.6388C3.11108 12.961 3.37225 13.2221 3.69442 13.2221H11.4722C11.7944 13.2221 12.0555 12.961 12.0555 12.6388V2.91659C12.0555 2.59442 11.7944 2.33325 11.4722 2.33325Z" fill="#ECF0F3"/>
</svg>
