<svg width="18" height="17" viewBox="0 0 18 17" fill="none" xmlns="http://www.w3.org/2000/svg">
<path fill-rule="evenodd" clip-rule="evenodd" d="M0.87931 0H0.37931V0.5V5.18966H1.37931V1H16.2069V15.8276H1.37931V11.6379H0.37931V16.3276V16.8276H0.87931H16.7069H17.2069V16.3276V0.5V0H16.7069H0.87931ZM11.4915 8.06024L8.3095 4.87826C8.11424 4.683 7.79766 4.683 7.6024 4.87826C7.40714 5.07352 7.40714 5.3901 7.6024 5.58537L9.93083 7.91379H0V8.91379H9.93083L7.6024 11.2422C7.40714 11.4375 7.40714 11.7541 7.6024 11.9493C7.79766 12.1446 8.11424 12.1446 8.3095 11.9493L11.4915 8.76735C11.6867 8.57208 11.6867 8.2555 11.4915 8.06024Z" fill="#651CE4"/>
</svg>
