<svg width="78" height="88" viewBox="0 0 78 88" fill="none" xmlns="http://www.w3.org/2000/svg">
<path d="M78.0001 43.0487C78.0001 41.8236 77.7078 40.674 77.2182 39.6291C73.9521 29.0929 58.6617 29.8625 36.912 29.3486C33.2757 29.2633 35.3557 24.9694 36.632 15.5438C37.4625 9.41347 33.5096 0 26.8653 0C15.9101 0 26.4488 8.64139 16.7626 30.0111C11.587 41.429 0.0180664 35.0332 0.0180664 46.5023V72.6091C0.0180664 77.0735 0.456469 81.365 6.73536 82.0713C12.8218 82.7557 11.4531 87.0935 20.2333 87.0935H64.1806C68.6572 87.0935 72.2984 83.4498 72.2984 78.9733C72.2984 77.1174 71.6481 75.4271 70.5984 74.0583C73.0826 72.6676 74.7875 70.0421 74.7875 66.9976C74.7875 65.1466 74.1397 63.4563 73.0924 62.0899C75.584 60.7016 77.2937 58.0737 77.2937 55.0243C77.2937 52.8104 76.3975 50.8035 74.9532 49.3349C76.7969 47.8467 78.0001 45.5963 78.0001 43.0487Z" fill="#FFDB5E"/>
<path d="M48.9293 51.1663H69.8849C72.7345 51.1663 75.4088 49.6417 76.8652 47.1891C77.4644 46.1783 77.1307 44.8704 76.1175 44.2688C75.1068 43.6672 73.7989 44.0058 73.1973 45.0165C72.508 46.1832 71.2342 46.9041 69.8825 46.9041H48.4251C46.2989 46.9041 44.5696 45.1748 44.5696 43.0486C44.5696 40.9223 46.2989 39.1931 48.4251 39.1931H62.7633C63.9397 39.1931 64.8944 38.2383 64.8944 37.062C64.8944 35.8856 63.9397 34.9308 62.7633 34.9308H48.4227C43.9461 34.9308 40.3049 38.572 40.3049 43.0486C40.3049 45.5451 41.4618 47.7541 43.2398 49.2447C41.7419 50.7182 40.8091 52.7641 40.8091 55.0243C40.8091 57.528 41.9733 59.7444 43.761 61.2325C42.2729 62.7036 41.3498 64.7422 41.3498 66.9975C41.3498 69.7254 42.7113 72.1317 44.7815 73.6052C43.5053 75.0398 42.7064 76.9079 42.7064 78.9732C42.7064 83.4498 46.3476 87.091 50.8241 87.091H64.1808C67.0304 87.091 69.7071 85.5687 71.1636 83.1161C71.7652 82.1054 71.4315 80.7975 70.4207 80.1959C69.4075 79.5992 68.0996 79.928 67.5005 80.9387C66.8063 82.1054 65.5325 82.8287 64.1808 82.8287H50.8241C48.6979 82.8287 46.9686 81.0995 46.9686 78.9732C46.9686 76.847 48.6979 75.1177 50.8241 75.1177H66.67C69.5196 75.1177 72.1987 73.593 73.6527 71.1404C74.2543 70.1272 73.9206 68.8193 72.9099 68.2202C71.8894 67.6089 70.5863 67.9523 69.9896 68.963C69.2857 70.1492 68.0436 70.8555 66.67 70.8555H49.4675C47.3413 70.8555 45.612 69.1238 45.612 66.9975C45.612 64.8713 47.3413 63.142 49.4675 63.142H69.1737C72.0233 63.142 74.7 61.6198 76.1565 59.1672C76.7581 58.1564 76.4244 56.8485 75.4136 56.2469C74.398 55.6478 73.0925 55.979 72.4934 56.9898C71.7895 58.1735 70.5474 58.8798 69.1737 58.8798H48.9293C46.803 58.8798 45.0738 57.1505 45.0738 55.0243C45.0738 52.898 46.8006 51.1663 48.9293 51.1663Z" fill="#EE9547"/>
</svg>
