<svg width="96" height="96" viewBox="0 0 96 96" fill="none" xmlns="http://www.w3.org/2000/svg">
<circle cx="48" cy="48" r="48" fill="#DD6956"/>
<path d="M25.7921 19.6728L47.5001 41.3808L69.1188 19.7621C69.4977 19.3589 69.9541 19.0363 70.4606 18.8137C70.9672 18.5911 71.5135 18.4731 72.0668 18.4668C73.2514 18.4668 74.3875 18.9374 75.2252 19.7751C76.0629 20.6127 76.5335 21.7488 76.5335 22.9335C76.5439 23.4811 76.4423 24.0251 76.2349 24.532C76.0275 25.0389 75.7187 25.4982 75.3275 25.8815L53.4855 47.5001L75.3275 69.3421C76.0636 70.0623 76.4953 71.0376 76.5335 72.0668C76.5335 73.2514 76.0629 74.3875 75.2252 75.2252C74.3875 76.0629 73.2514 76.5335 72.0668 76.5335C71.4975 76.5571 70.9296 76.4621 70.399 76.2545C69.8684 76.0468 69.3868 75.7312 68.9848 75.3275L47.5001 53.6195L25.8368 75.2828C25.4594 75.6726 25.0085 75.9838 24.5102 76.1985C24.0119 76.4131 23.476 76.527 22.9335 76.5335C21.7488 76.5335 20.6127 76.0629 19.775 75.2252C18.9374 74.3875 18.4668 73.2514 18.4668 72.0668C18.4564 71.5192 18.558 70.9752 18.7654 70.4683C18.9728 69.9613 19.2815 69.5021 19.6728 69.1188L41.5148 47.5001L19.6728 25.6581C18.9366 24.9379 18.5049 23.9626 18.4668 22.9335C18.4668 21.7488 18.9374 20.6127 19.775 19.7751C20.6127 18.9374 21.7488 18.4668 22.9335 18.4668C24.0055 18.4802 25.0328 18.9135 25.7921 19.6728Z" fill="white"/>
</svg>
