<svg width="17" height="16" viewBox="0 0 17 16" fill="none" xmlns="http://www.w3.org/2000/svg">
<path fill-rule="evenodd" clip-rule="evenodd" d="M3.32843 0.146446L0.146447 3.32843C-0.0488155 3.52369 -0.0488155 3.84027 0.146447 4.03553C0.341709 4.2308 0.658291 4.2308 0.853554 4.03553L3.18198 1.70711L3.18198 15.3571H4.18198L4.18198 1.70711L6.51041 4.03553C6.70567 4.2308 7.02225 4.2308 7.21751 4.03553C7.41278 3.84027 7.41278 3.52369 7.21751 3.32843L4.03553 0.146446C3.84027 -0.0488157 3.52369 -0.0488157 3.32843 0.146446ZM13.0355 15.7107L16.2175 12.5287C16.4128 12.3335 16.4128 12.0169 16.2175 11.8216C16.0223 11.6264 15.7057 11.6264 15.5104 11.8216L13.182 14.15L13.182 0.500001H12.182L12.182 14.15L9.85355 11.8216C9.65829 11.6264 9.34171 11.6264 9.14645 11.8216C8.95119 12.0169 8.95119 12.3335 9.14645 12.5287L12.3284 15.7107C12.5237 15.906 12.8403 15.906 13.0355 15.7107Z" fill="#651CE4"/>
</svg>
