<svg width="44" height="37" viewBox="0 0 44 37" fill="none" xmlns="http://www.w3.org/2000/svg">
<path d="M11.5 13C12.0523 13 12.5 12.5523 12.5 12C12.5 11.4477 12.0523 11 11.5 11V13ZM32.5 11C31.9477 11 31.5 11.4477 31.5 12C31.5 12.5523 31.9477 13 32.5 13V11ZM21.0399 24.7071C21.4304 25.0976 22.0636 25.0976 22.4541 24.7071L28.8181 18.3431C29.2086 17.9526 29.2086 17.3195 28.8181 16.9289C28.4275 16.5384 27.7944 16.5384 27.4038 16.9289L21.747 22.5858L16.0901 16.9289C15.6996 16.5384 15.0664 16.5384 14.6759 16.9289C14.2854 17.3195 14.2854 17.9526 14.6759 18.3431L21.0399 24.7071ZM42 16V32H44V16H42ZM38.9518 35H5.04819V37H38.9518V35ZM2 32V16H0V32H2ZM5.04819 13H11.5V11H5.04819V13ZM32.5 13H38.9518V11H32.5V13ZM5.04819 35C3.3534 35 2 33.6456 2 32H0C0 34.7727 2.27148 37 5.04819 37V35ZM42 32C42 33.6456 40.6466 35 38.9518 35V37C41.7285 37 44 34.7727 44 32H42ZM44 16C44 13.2273 41.7285 11 38.9518 11V13C40.6466 13 42 14.3544 42 16H44ZM2 16C2 14.3544 3.3534 13 5.04819 13V11C2.27148 11 0 13.2273 0 16H2ZM20.747 7.94729e-08L20.747 24H22.747L22.747 -7.94729e-08L20.747 7.94729e-08Z" fill="#406EDC"/>
</svg>
