<svg width="35" height="34" viewBox="0 0 35 34" fill="none" xmlns="http://www.w3.org/2000/svg">
<path fill-rule="evenodd" clip-rule="evenodd" d="M6.65686 0.292889L0.292895 6.65685C-0.0976292 7.04738 -0.0976292 7.68054 0.292895 8.07106C0.68342 8.46159 1.31658 8.46159 1.70711 8.07106L6.36396 3.41421L6.36396 33H8.36396L8.36396 3.41421L13.0208 8.07106C13.4113 8.46159 14.0445 8.46159 14.435 8.07106C14.8256 7.68054 14.8256 7.04737 14.435 6.65685L8.07107 0.292889C7.68055 -0.0976334 7.04738 -0.0976333 6.65686 0.292889ZM26.6569 33.7071L20.2929 27.3431C19.9024 26.9526 19.9024 26.3195 20.2929 25.9289C20.6834 25.5384 21.3166 25.5384 21.7071 25.9289L26.364 30.5858L26.364 0.999996L28.364 0.999996L28.364 30.5858L33.0208 25.9289C33.4113 25.5384 34.0445 25.5384 34.435 25.9289C34.8256 26.3195 34.8256 26.9526 34.435 27.3431L28.0711 33.7071C27.6805 34.0976 27.0474 34.0976 26.6569 33.7071Z" fill="#7380EB"/>
</svg>
