<svg width="10" height="17" viewBox="0 0 10 17" fill="none" xmlns="http://www.w3.org/2000/svg">
<path fill-rule="evenodd" clip-rule="evenodd" d="M4.71726 0.956025L2.17168 3.50161C2.01547 3.65782 2.01547 3.91109 2.17168 4.0673C2.32789 4.22351 2.58115 4.22351 2.73736 4.0673L4.60011 2.20455L4.60011 10.0522H1.44043V7.89814C1.77187 7.73528 2 7.39433 2 7.0001C2 6.44781 1.55228 6.0001 1 6.0001C0.447715 6.0001 0 6.44781 0 7.0001C0 7.34508 0.174687 7.64926 0.44043 7.829V10.5522V11.0522H0.94043H4.60011V13.221C3.73703 13.4049 3.08967 14.1716 3.08967 15.0895C3.08967 16.1446 3.945 17 5.00011 17C6.05521 17 6.91054 16.1446 6.91054 15.0895C6.91054 14.1716 6.26318 13.4049 5.40011 13.221V11.0522H9.05978H9.55978V10.5522V8.0001H10V6.0001H8V8.0001H8.55978V10.0522H5.40011L5.40011 2.20455L7.26285 4.0673C7.41906 4.22351 7.67232 4.22351 7.82853 4.06729C7.98474 3.91108 7.98474 3.65782 7.82853 3.50161L5.28295 0.956025C5.12674 0.799815 4.87347 0.799815 4.71726 0.956025Z" fill="#651CE4"/>
</svg>
