<svg width="70" height="70" viewBox="0 0 70 70" fill="none" xmlns="http://www.w3.org/2000/svg">
<path d="M55.3 28H49V19.6C49 9.4605 44.3275 3.5 35 3.5C25.669 3.5 21 9.4605 21 19.6V28H14C12.0645 28 10.5 30.261 10.5 32.1965V59.5C10.5 61.4215 11.998 63.4865 13.8285 64.0745L18.018 65.429C20.2402 66.0767 22.5362 66.4367 24.85 66.5H45.15C47.4629 66.4372 49.7581 66.0761 51.9785 65.4255L56.1645 64.071C57.9985 63.4865 59.5 61.4215 59.5 59.5V32.1965C59.5 30.261 57.232 28 55.3 28ZM42 28H28V18.1965C28 13.139 30.7895 10.5 35 10.5C39.2105 10.5 42 13.139 42 18.1965V28Z" fill="#651CE4"/>
<path fill-rule="evenodd" clip-rule="evenodd" d="M39 46.4722C40.2275 45.3736 41 43.777 41 42C41 38.6863 38.3137 36 35 36C31.6863 36 29 38.6863 29 42C29 43.777 29.7725 45.3736 31 46.4722V54C31 56.2091 32.7909 58 35 58C37.2091 58 39 56.2091 39 54V46.4722Z" fill="#222429"/>
</svg>
