<svg width="20" height="19" viewBox="0 0 20 19" fill="none" xmlns="http://www.w3.org/2000/svg">
<path d="M17.1887 10.7441L17.0774 11.9613L16.8815 13.17L16.6014 14.3655L16.5907 14.3996L16.5777 14.4333L16.5627 14.4659L16.5452 14.498L16.5255 14.5288L16.5036 14.5584L16.4798 14.587L16.4541 14.614L16.4265 14.6395L16.3972 14.6637L16.3661 14.686L16.3336 14.7066L16.2998 14.7255L15.617 15.0542L14.9126 15.3446L14.1893 15.5955L13.4498 15.8064L12.697 15.9758L11.9338 16.1037L11.1632 16.1892L10.4018 16.2295L10.3881 16.2319H9.99989H9.61167L9.59824 16.2295L8.83657 16.1892L8.06596 16.1037L7.30295 15.9758L6.55002 15.8064L5.81075 15.5955L5.08715 15.3446L4.3828 15.0542L3.69995 14.7255L3.66637 14.7066L3.63368 14.686L3.60256 14.6637L3.57345 14.6395L3.54569 14.614L3.51994 14.587L3.49621 14.5584L3.47427 14.5288L3.45457 14.498L3.4371 14.4659L3.42211 14.4333L3.40912 14.3996L3.39837 14.3655L3.11829 13.17L2.92239 11.9613L2.81112 10.7441L2.78515 9.5232L2.84448 8.30315L2.98888 7.08886L3.21792 5.88476L3.22665 5.85176L3.2374 5.81897L3.24658 5.79638L3.25038 5.78685L3.26561 5.75562L3.28307 5.72528L3.53405 5.34362L3.81234 4.97748L4.11705 4.62817L4.44661 4.29724L4.58609 4.1743L4.79968 3.98602L5.17491 3.69607L5.57029 3.42805L5.98471 3.18373L6.41614 2.96378L6.86257 2.7693L7.32243 2.60118L7.79349 2.45986L8.27417 2.346L8.7618 2.26028L9.25502 2.20269L9.75115 2.17411H9.99989H10.2486L10.7448 2.20269L11.238 2.26028L11.7258 2.346L12.2063 2.45986L12.6776 2.60118L13.1372 2.7693L13.5836 2.96378L14.0151 3.18373L14.4295 3.42805L14.8249 3.69607L15.2001 3.98602L15.4137 4.1743L15.5532 4.29724L15.8827 4.62817L16.1874 4.97748L16.4657 5.34362L16.7169 5.72528L16.7342 5.75562L16.7494 5.78685L16.7534 5.79638L16.7624 5.81897L16.7733 5.85176L16.7821 5.88476L17.0109 7.08886L17.1555 8.30315L17.2146 9.5232L17.1887 10.7441ZM19.9949 8.32596L19.983 8.22141L19.9646 8.11819L19.9396 8.01586L19.908 7.91529L19.8697 7.81695L19.8251 7.72103L19.7745 7.62778L19.7181 7.53785L19.6561 7.45124L19.5883 7.36862L19.5153 7.29021L19.4376 7.21623L19.355 7.14711L19.2681 7.08288L19.1774 7.02396L19.0489 6.95108L19.0158 6.9296L18.9845 6.90634L18.9545 6.88109L18.926 6.85429L18.8996 6.82593L18.875 6.79581L18.8526 6.76436L18.832 6.73157L18.8136 6.69768L18.7975 6.66291L18.7836 6.62724L18.6851 6.37406L18.5696 6.12775L18.4373 5.88919L18.2893 5.65927L18.1258 5.43909L17.9479 5.22955L17.7555 5.03175L17.5505 4.84657L17.3333 4.67424L17.3053 4.65231L17.2784 4.62883L17.2531 4.60402L17.2296 4.57788L17.2072 4.55042L17.1866 4.52184L17.1678 4.49216L16.8931 4.06266L16.5898 3.65089L16.26 3.25838L15.9047 2.8867L15.525 2.5376L15.1231 2.21221L14.7004 1.91207L14.2584 1.63851L13.7992 1.3922L13.3246 1.17468L12.8363 0.986406L12.3366 0.828472L11.8273 0.701328L11.3105 0.605417L10.7884 0.541182L10.263 0.509062H9.99989H9.73682L9.21136 0.541182L8.68926 0.605417L8.17253 0.701328L7.66319 0.828472L7.16369 0.986406L6.67517 1.17468L6.20054 1.3922L5.74134 1.63851L5.29939 1.91207L4.87669 2.21221L4.47482 2.5376L4.09533 2.8867L3.74002 3.25838L3.41002 3.65089L3.10687 4.06266L2.83194 4.49216L2.81313 4.52184L2.79254 4.55042L2.77037 4.57788L2.74664 4.60402L2.72157 4.62883L2.69492 4.65231L2.66671 4.67424L2.44932 4.84657L2.24424 5.03175L2.05237 5.22955L1.87415 5.43909L1.71049 5.65927L1.5625 5.88919L1.43019 6.12775L1.31489 6.37406L1.21615 6.62724L1.20249 6.66291L1.18615 6.69768L1.16779 6.73157L1.14742 6.76436L1.12481 6.79581L1.1004 6.82593L1.07376 6.85429L1.04555 6.88109L1.01555 6.90634L0.983982 6.9296L0.95107 6.95108L0.822336 7.02396L0.731662 7.08288L0.644794 7.14711L0.562179 7.21623L0.484714 7.29021L0.411504 7.36862L0.34389 7.45124L0.28165 7.53785L0.225231 7.62778L0.174631 7.72103L0.130302 7.81695L0.092018 7.91529L0.0602265 8.01586L0.0351514 8.11819L0.0167925 8.22141L0.00492621 8.32596L0 8.43073L0.00156805 8.53573L0.226126 13.3275L0.231947 13.4004L0.242469 13.4731L0.25747 13.5451L0.276947 13.6157L0.300904 13.6853L0.329561 13.7533L0.362249 13.8197L0.399191 13.8837L0.440162 13.9458L0.526806 14.0605L0.62039 14.1701L0.720915 14.274L0.827933 14.3719L0.940772 14.4634L1.05921 14.5483L1.21593 14.6468L1.24749 14.6694L1.27772 14.694L1.30615 14.7201L1.3328 14.748L1.35765 14.7773L1.38093 14.8081L1.40153 14.8402L1.42056 14.8734L1.43735 14.9075L1.61265 15.3353L1.79781 15.7178C1.9355 15.9628 5.03543 18.2217 5.03543 18.2217C5.03543 18.2217 6.64473 18.948 9.99989 18.948C13.3551 18.948 14.9643 18.2217 14.9643 18.2217C14.9643 18.2217 18.0643 15.9628 18.202 15.7178L18.3873 15.3353L18.5627 14.9075L18.5792 14.8734L18.5982 14.8402L18.6191 14.8081L18.6421 14.7773L18.667 14.748L18.6938 14.7201L18.7223 14.694L18.7523 14.6694L18.7838 14.6468L18.9406 14.5483L19.059 14.4634L19.1718 14.3719L19.2789 14.274L19.3794 14.1701L19.473 14.0605L19.5596 13.9458L19.6006 13.8837L19.6375 13.8197L19.6702 13.7533L19.6989 13.6853L19.7228 13.6157L19.7423 13.5451L19.7575 13.4731L19.7681 13.4004L19.7737 13.3275L19.9982 8.53573L20 8.43073L19.9949 8.32596Z" fill="#F5F5FB"/>
<path d="M13.6756 10.6769H12.7288C12.6103 10.6769 12.5143 10.7722 12.5143 10.8893V11.535C12.5143 11.6527 12.467 11.7656 12.3828 11.8489L12.3226 11.9085C12.2384 11.9918 12.1243 12.0383 12.0054 12.0383H7.99534C7.87646 12.0383 7.76228 11.9918 7.6781 11.9085L7.61787 11.8489C7.53369 11.7656 7.48645 11.6527 7.48645 11.535V10.8893C7.48645 10.7722 7.3904 10.6769 7.27174 10.6769H6.32515C6.20671 10.6769 6.11044 10.7722 6.11044 10.8893V11.8259C6.11044 11.9433 6.20671 12.0383 6.32515 12.0383H7.038C7.15689 12.0383 7.27107 12.085 7.35525 12.1683C7.43943 12.2516 7.48645 12.3646 7.48645 12.4822V13.1673C7.48645 13.2951 7.59212 13.3997 7.72131 13.3997H7.72198H12.2787H12.2792C12.4086 13.3997 12.5143 13.2951 12.5143 13.1673V12.4822C12.5143 12.3646 12.5613 12.2516 12.6455 12.1683C12.7296 12.085 12.8438 12.0383 12.9627 12.0383H13.6756C13.794 12.0383 13.8903 11.9433 13.8903 11.8259V10.8893C13.8903 10.7722 13.794 10.6769 13.6756 10.6769Z" fill="#F5F5FB"/>
</svg>
