<svg width="11" height="12" viewBox="0 0 11 12" fill="none" xmlns="http://www.w3.org/2000/svg">
<path fill-rule="evenodd" clip-rule="evenodd" d="M9.98049 4.01193C9.98049 5.66319 8.62203 7.02263 6.92044 7.02263C5.21884 7.02263 3.86038 5.66319 3.86038 4.01193C3.86038 2.36067 5.21884 1.00123 6.92044 1.00123C8.62203 1.00123 9.98049 2.36067 9.98049 4.01193ZM10.9817 4.01193C10.9817 6.22766 9.16342 8.02386 6.92044 8.02386C6.03081 8.02386 5.20799 7.7413 4.53894 7.26206L0.859809 10.8965C0.663116 11.0908 0.344213 11.0908 0.14752 10.8965C-0.0491734 10.7022 -0.0491732 10.3872 0.14752 10.1929L3.80224 6.58255C3.21347 5.88637 2.85916 4.99003 2.85916 4.01193C2.85916 1.7962 4.67745 0 6.92044 0C9.16342 0 10.9817 1.7962 10.9817 4.01193Z" fill="#96999C"/>
</svg>
