<svg width="14" height="17" viewBox="0 0 14 17" fill="none" xmlns="http://www.w3.org/2000/svg">
<path fill-rule="evenodd" clip-rule="evenodd" d="M10.3808 3.74212L7.47757 0.838867H6.52109L3.61649 3.74212L4.57296 4.69859L6.05165 3.22126V4.59983H6.02459V5.21674L6.05841 5.21809L6.06653 5.64966C6.07194 5.90264 6.09358 6.16239 6.13417 6.4262C6.17476 6.69001 6.22752 6.95382 6.29246 7.21898C6.35739 7.48279 6.44668 7.76554 6.56303 8.06723C6.77272 8.57996 7.02706 9.044 7.3274 9.46203C7.62638 9.88007 7.94972 10.271 8.2947 10.635C8.63968 11.0002 8.98195 11.3587 9.32288 11.7132C9.66109 12.0677 9.96954 12.4451 10.2442 12.8469C10.5188 13.2487 10.742 13.687 10.9125 14.1632C11.0816 14.6381 11.1668 15.1847 11.1668 15.8043V17.0002H13.0865V15.8043C13.0854 15.1708 13.0101 14.5397 12.862 13.9238C12.7336 13.4052 12.5394 12.9051 12.2843 12.4356C12.0498 12.0069 11.7763 11.6006 11.4672 11.2221C11.1668 10.8568 10.8543 10.5091 10.5296 10.175C10.2049 9.84219 9.89243 9.50938 9.59209 9.17658C9.29265 8.84425 9.01945 8.48919 8.77496 8.11458C8.52539 7.73039 8.32838 7.31453 8.18917 6.87806C8.03787 6.38286 7.96484 5.86706 7.97271 5.34932V4.59983H7.97136V3.24697L9.42434 4.69995L10.3808 3.74212ZM5.70261 10.635C5.85596 10.4731 6.00439 10.3066 6.1477 10.1358C5.81286 9.6489 5.53163 9.12727 5.30892 8.57996L5.29945 8.5502C5.25433 8.43244 5.21148 8.31381 5.17093 8.1944C4.94094 8.54073 4.68525 8.86812 4.40656 9.17658C4.10623 9.50938 3.79371 9.84219 3.46902 10.175C3.14434 10.5091 2.83318 10.8568 2.53149 11.2221C2.23251 11.5874 1.95923 11.9905 1.71436 12.4343C1.45908 12.9046 1.26495 13.4056 1.13669 13.9251C0.988753 14.5406 0.913381 15.1713 0.912109 15.8043V17.0002H2.83318V15.8043C2.83318 15.186 2.91706 14.6381 3.08752 14.1632C3.25663 13.687 3.47985 13.2487 3.75448 12.8469C4.02911 12.4451 4.33621 12.0677 4.67713 11.7132C5.0167 11.3587 5.35898 11.0002 5.70531 10.635H5.70261Z" fill="#651CE4"/>
</svg>
