<svg width="64" height="64" viewBox="0 0 64 64" fill="none" xmlns="http://www.w3.org/2000/svg">
<g filter="url(#filter0_d)">
<path d="M32 20C25.3732 20 20 25.3732 20 32C20 38.6268 25.3732 44 32 44C38.6268 44 44 38.6268 44 32C44 25.3732 38.6268 20 32 20ZM37.767 29.0455C37.775 29.1714 37.775 29.3027 37.775 29.4313C37.775 33.3634 34.7804 37.8929 29.308 37.8929C27.6205 37.8929 26.0563 37.4027 24.7384 36.5589C24.9795 36.5857 25.2098 36.5964 25.4563 36.5964C26.8491 36.5964 28.1295 36.125 29.15 35.3268C27.8429 35.3 26.7446 34.4429 26.3696 33.2643C26.8277 33.3313 27.2402 33.3313 27.7116 33.2107C27.0386 33.074 26.4336 32.7084 25.9995 32.1762C25.5654 31.644 25.329 30.9779 25.3304 30.2911V30.2536C25.7241 30.4759 26.1875 30.6125 26.6723 30.6313C26.2648 30.3596 25.9305 29.9916 25.6992 29.5599C25.4679 29.1282 25.3468 28.646 25.3464 28.1562C25.3464 27.6018 25.4911 27.0955 25.7509 26.6562C26.498 27.5759 27.4302 28.3281 28.487 28.8638C29.5437 29.3996 30.7014 29.707 31.8848 29.7661C31.4643 27.7438 32.975 26.1071 34.7911 26.1071C35.6482 26.1071 36.4196 26.4661 36.9634 27.0446C37.6357 26.9188 38.2786 26.667 38.8518 26.3295C38.6295 27.0179 38.1634 27.5991 37.5446 27.9661C38.1446 27.9018 38.7232 27.7357 39.2589 27.5027C38.8545 28.0973 38.3482 28.625 37.767 29.0455Z" fill="#406EDC"/>
</g>
<defs>
<filter id="filter0_d" x="0" y="0" width="64" height="64" filterUnits="userSpaceOnUse" color-interpolation-filters="sRGB">
<feFlood flood-opacity="0" result="BackgroundImageFix"/>
<feColorMatrix in="SourceAlpha" type="matrix" values="0 0 0 0 0 0 0 0 0 0 0 0 0 0 0 0 0 0 127 0"/>
<feOffset/>
<feGaussianBlur stdDeviation="10"/>
<feColorMatrix type="matrix" values="0 0 0 0 0.8125 0 0 0 0 0.832812 0 0 0 0 1 0 0 0 0.41 0"/>
<feBlend mode="normal" in2="BackgroundImageFix" result="effect1_dropShadow"/>
<feBlend mode="normal" in="SourceGraphic" in2="effect1_dropShadow" result="shape"/>
</filter>
</defs>
</svg>
