<svg width="49" height="45" viewBox="0 0 49 45" fill="none" xmlns="http://www.w3.org/2000/svg">
<path fill-rule="evenodd" clip-rule="evenodd" d="M46.8439 30.298L32.8382 5.79246L32.7623 5.65951C32.3924 5.01174 31.9419 4.22254 31.4937 3.57828C31.0348 2.91862 30.043 1.58942 28.305 0.767651C26.1402 -0.255884 23.6307 -0.255884 21.4659 0.767651C19.7279 1.58941 18.736 2.91862 18.2772 3.57828C17.829 4.22254 17.3785 5.01174 17.0086 5.65951L16.9327 5.79245L2.92695 30.298L2.85163 30.4297C2.48639 31.068 2.03931 31.8494 1.71418 32.557C1.37906 33.2864 0.745541 34.8001 0.910797 36.6974C1.11724 39.0676 2.3679 41.2229 4.32325 42.5782C5.88852 43.6632 7.51704 43.8642 8.31659 43.9352C9.09231 44.0041 9.99259 44.0036 10.728 44.0033L10.8797 44.0032H38.8912L39.0429 44.0033C39.7783 44.0036 40.6786 44.0041 41.4543 43.9352C42.2539 43.8642 43.8824 43.6632 45.4476 42.5782C47.403 41.2229 48.6537 39.0676 48.8601 36.6974C49.0253 34.8001 48.3918 33.2864 48.0567 32.557C47.7316 31.8494 47.2845 31.068 46.9193 30.4297L46.9192 30.4296L46.8439 30.298ZM22.1419 8.7697C23.0216 7.23057 23.4614 6.46101 24.0306 6.19191C24.5718 5.93603 25.1991 5.93603 25.7403 6.19191C26.3095 6.46101 26.7493 7.23057 27.629 8.76971L41.6347 33.2752C42.5029 34.7943 42.937 35.5538 42.8827 36.1768C42.8311 36.7693 42.5184 37.3081 42.0296 37.647C41.5156 38.0032 40.6408 38.0032 38.8912 38.0032H10.8797C9.13007 38.0032 8.25525 38.0032 7.74128 37.647C7.25244 37.3081 6.93978 36.7693 6.88817 36.1768C6.8339 35.5538 7.26799 34.7943 8.13617 33.2752L22.1419 8.7697ZM22.9908 15.9324C22.9908 14.8862 23.8389 14.0381 24.8851 14.0381C25.9312 14.0381 26.7793 14.8862 26.7793 15.9324V26.8144C26.7793 27.8606 25.9312 28.7087 24.8851 28.7087C23.8389 28.7087 22.9908 27.8606 22.9908 26.8144V15.9324ZM22.9908 31.8786C22.9908 30.8324 23.8389 29.9843 24.8851 29.9843C25.9312 29.9843 26.7793 30.8324 26.7793 31.8786V31.9171C26.7793 32.9633 25.9312 33.8114 24.8851 33.8114C23.8389 33.8114 22.9908 32.9633 22.9908 31.9171V31.8786Z" fill="#F29C38"/>
</svg>
