<svg width="227" height="70" viewBox="0 0 227 70" fill="none" xmlns="http://www.w3.org/2000/svg">
<path d="M29.5 3L59 19.5527V52.658L44.25 60.9342L29.5 69.2105L0 52.658V19.5527L29.5 3Z" fill="white"/>
<path d="M29.4998 6.67786L55.7221 21.3863V50.8032L29.4998 65.5114L3.27759 50.8032V21.3863L29.4998 6.67786Z" fill="#5985E3"/>
<path d="M29.3711 34.467L55.7186 21.3822L55.7248 50.7941L29.4907 65.5313L29.3711 34.467Z" fill="#386DE6"/>
<path fill-rule="evenodd" clip-rule="evenodd" d="M29.4838 13.1002L49.7842 24.3607L55.7073 21.4107L29.5037 6.67126L29.4838 6.68251L29.4639 6.67126L3.26025 21.4107L3.27501 21.418L3.27008 50.7971L9.03075 54.0416L9.03172 53.8705V54.0139L29.513 65.5248V65.5064L55.7135 50.8057V47.5106V44.1864L29.513 58.9082V58.9053L9.06799 47.4359L9.19804 24.3602L9.19089 24.3567L29.4838 13.1002Z" fill="#17181A"/>
<path d="M106.952 41H98.8403L92.1203 18.008H91.9763L85.2563 41H77.0963L67.4483 7.016H76.2803L81.6563 29.624H81.8003L87.8483 7.016H96.3923L102.488 29.624H102.632L108.104 7.016H116.648L106.952 41ZM131.594 30.584H130.586C129.722 30.584 128.842 30.632 127.946 30.728C127.082 30.792 126.298 30.936 125.594 31.16C124.922 31.384 124.362 31.72 123.914 32.168C123.466 32.584 123.242 33.144 123.242 33.848C123.242 34.296 123.338 34.68 123.53 35C123.754 35.32 124.026 35.576 124.346 35.768C124.666 35.96 125.034 36.104 125.45 36.2C125.866 36.264 126.266 36.296 126.65 36.296C128.25 36.296 129.466 35.864 130.298 35C131.162 34.104 131.594 32.904 131.594 31.4V30.584ZM117.146 20.36C118.554 19.016 120.186 18.008 122.042 17.336C123.93 16.664 125.85 16.328 127.802 16.328C129.818 16.328 131.514 16.584 132.89 17.096C134.298 17.576 135.434 18.344 136.298 19.4C137.162 20.424 137.786 21.736 138.17 23.336C138.586 24.904 138.794 26.776 138.794 28.952V41H131.594V38.456H131.45C130.842 39.448 129.914 40.216 128.666 40.76C127.45 41.304 126.122 41.576 124.682 41.576C123.722 41.576 122.73 41.448 121.706 41.192C120.682 40.936 119.738 40.52 118.874 39.944C118.042 39.368 117.354 38.6 116.81 37.64C116.266 36.68 115.994 35.496 115.994 34.088C115.994 32.36 116.458 30.968 117.386 29.912C118.346 28.856 119.562 28.04 121.034 27.464C122.538 26.888 124.202 26.504 126.026 26.312C127.85 26.12 129.626 26.024 131.354 26.024V25.64C131.354 24.456 130.938 23.592 130.106 23.048C129.274 22.472 128.25 22.184 127.034 22.184C125.914 22.184 124.826 22.424 123.77 22.904C122.746 23.384 121.866 23.96 121.13 24.632L117.146 20.36ZM144.242 41V4.712H152.21V41H144.242ZM158.016 41V4.712H165.984V41H158.016ZM188.158 26.312C188.158 25.064 187.758 23.992 186.958 23.096C186.19 22.2 185.022 21.752 183.454 21.752C182.686 21.752 181.982 21.88 181.342 22.136C180.702 22.36 180.142 22.68 179.662 23.096C179.182 23.512 178.798 24.008 178.51 24.584C178.222 25.128 178.062 25.704 178.03 26.312H188.158ZM195.406 29.336C195.406 29.656 195.406 29.976 195.406 30.296C195.406 30.616 195.39 30.92 195.358 31.208H178.03C178.094 31.88 178.286 32.488 178.606 33.032C178.958 33.576 179.39 34.056 179.902 34.472C180.446 34.856 181.038 35.16 181.678 35.384C182.35 35.608 183.038 35.72 183.742 35.72C184.99 35.72 186.046 35.496 186.91 35.048C187.774 34.568 188.478 33.96 189.022 33.224L194.494 36.68C193.374 38.312 191.886 39.576 190.03 40.472C188.206 41.336 186.078 41.768 183.646 41.768C181.854 41.768 180.158 41.496 178.558 40.952C176.958 40.376 175.55 39.56 174.334 38.504C173.15 37.416 172.206 36.088 171.502 34.52C170.83 32.952 170.494 31.16 170.494 29.144C170.494 27.192 170.83 25.432 171.502 23.864C172.174 22.264 173.086 20.92 174.238 19.832C175.39 18.712 176.75 17.848 178.318 17.24C179.886 16.632 181.582 16.328 183.406 16.328C185.166 16.328 186.782 16.632 188.254 17.24C189.726 17.816 190.99 18.664 192.046 19.784C193.102 20.904 193.918 22.264 194.494 23.864C195.102 25.464 195.406 27.288 195.406 29.336ZM208.308 23V32.12C208.308 33.24 208.516 34.088 208.932 34.664C209.38 35.208 210.164 35.48 211.284 35.48C211.668 35.48 212.068 35.448 212.484 35.384C212.932 35.32 213.3 35.224 213.588 35.096L213.684 40.856C213.14 41.048 212.452 41.208 211.62 41.336C210.788 41.496 209.956 41.576 209.124 41.576C207.524 41.576 206.18 41.384 205.092 41C204.004 40.584 203.124 40.008 202.452 39.272C201.812 38.504 201.348 37.608 201.06 36.584C200.772 35.528 200.628 34.36 200.628 33.08V23H196.788V17.096H200.58V10.808H208.308V17.096H213.924V23H208.308Z" fill="#366CE5"/>
<path d="M102.387 57.052V58H101.571V48.928H102.387V53.356H102.411C102.651 52.988 102.963 52.712 103.347 52.528C103.731 52.336 104.127 52.24 104.535 52.24C104.975 52.24 105.371 52.316 105.723 52.468C106.083 52.62 106.387 52.828 106.635 53.092C106.891 53.356 107.087 53.668 107.223 54.028C107.367 54.388 107.439 54.776 107.439 55.192C107.439 55.608 107.367 55.996 107.223 56.356C107.087 56.716 106.891 57.028 106.635 57.292C106.387 57.556 106.083 57.764 105.723 57.916C105.371 58.068 104.975 58.144 104.535 58.144C104.127 58.144 103.731 58.052 103.347 57.868C102.963 57.684 102.651 57.412 102.411 57.052H102.387ZM106.575 55.192C106.575 54.88 106.527 54.588 106.431 54.316C106.335 54.036 106.195 53.796 106.011 53.596C105.835 53.388 105.615 53.224 105.351 53.104C105.087 52.984 104.787 52.924 104.451 52.924C104.139 52.924 103.851 52.984 103.587 53.104C103.323 53.216 103.095 53.376 102.903 53.584C102.711 53.784 102.559 54.024 102.447 54.304C102.343 54.576 102.291 54.872 102.291 55.192C102.291 55.512 102.343 55.812 102.447 56.092C102.559 56.364 102.711 56.6 102.903 56.8C103.095 57 103.323 57.16 103.587 57.28C103.851 57.392 104.139 57.448 104.451 57.448C104.787 57.448 105.087 57.392 105.351 57.28C105.615 57.16 105.835 57 106.011 56.8C106.195 56.592 106.335 56.352 106.431 56.08C106.527 55.8 106.575 55.504 106.575 55.192ZM110.596 57.124H110.62L112.36 52.384H113.248L110.452 59.452C110.284 59.884 110.068 60.228 109.804 60.484C109.548 60.748 109.176 60.88 108.688 60.88C108.44 60.88 108.196 60.856 107.956 60.808L108.04 60.064C108.232 60.128 108.432 60.16 108.64 60.16C108.92 60.16 109.14 60.072 109.3 59.896C109.46 59.728 109.6 59.484 109.72 59.164L110.176 57.988L107.776 52.384H108.688L110.596 57.124ZM123.678 56.632C123.534 56.848 123.358 57.052 123.15 57.244C122.95 57.436 122.714 57.604 122.442 57.748C122.178 57.892 121.882 58.004 121.554 58.084C121.234 58.172 120.882 58.216 120.498 58.216C119.858 58.216 119.266 58.104 118.722 57.88C118.178 57.656 117.71 57.348 117.318 56.956C116.926 56.556 116.618 56.084 116.394 55.54C116.178 54.996 116.07 54.4 116.07 53.752C116.07 53.104 116.182 52.508 116.406 51.964C116.63 51.42 116.938 50.952 117.33 50.56C117.73 50.16 118.198 49.848 118.734 49.624C119.278 49.4 119.866 49.288 120.498 49.288C120.81 49.288 121.114 49.32 121.41 49.384C121.714 49.448 121.998 49.54 122.262 49.66C122.526 49.772 122.766 49.912 122.982 50.08C123.198 50.24 123.378 50.424 123.522 50.632L122.802 51.16C122.714 51.024 122.594 50.888 122.442 50.752C122.298 50.616 122.126 50.496 121.926 50.392C121.726 50.288 121.506 50.204 121.266 50.14C121.034 50.076 120.782 50.044 120.51 50.044C119.958 50.044 119.462 50.144 119.022 50.344C118.59 50.544 118.222 50.816 117.918 51.16C117.614 51.496 117.382 51.888 117.222 52.336C117.062 52.784 116.982 53.256 116.982 53.752C116.982 54.248 117.062 54.72 117.222 55.168C117.39 55.616 117.626 56.012 117.93 56.356C118.234 56.692 118.602 56.96 119.034 57.16C119.474 57.36 119.966 57.46 120.51 57.46C120.998 57.46 121.462 57.36 121.902 57.16C122.342 56.96 122.71 56.64 123.006 56.2L123.678 56.632ZM124.591 53.62C124.591 53.468 124.587 53.272 124.579 53.032C124.571 52.792 124.559 52.576 124.543 52.384H125.323C125.339 52.536 125.351 52.704 125.359 52.888C125.367 53.072 125.371 53.224 125.371 53.344H125.395C125.555 53.016 125.795 52.752 126.115 52.552C126.435 52.344 126.795 52.24 127.195 52.24C127.299 52.24 127.391 52.244 127.471 52.252C127.559 52.26 127.647 52.276 127.735 52.3L127.627 53.068C127.579 53.052 127.499 53.036 127.387 53.02C127.275 53.004 127.163 52.996 127.051 52.996C126.835 52.996 126.627 53.036 126.427 53.116C126.227 53.196 126.051 53.324 125.899 53.5C125.755 53.668 125.635 53.888 125.539 54.16C125.451 54.424 125.407 54.744 125.407 55.12V58H124.591V53.62ZM130.324 57.124H130.348L132.088 52.384H132.976L130.18 59.452C130.012 59.884 129.796 60.228 129.532 60.484C129.276 60.748 128.904 60.88 128.416 60.88C128.168 60.88 127.924 60.856 127.684 60.808L127.768 60.064C127.96 60.128 128.16 60.16 128.368 60.16C128.648 60.16 128.868 60.072 129.028 59.896C129.188 59.728 129.328 59.484 129.448 59.164L129.904 57.988L127.504 52.384H128.416L130.324 57.124ZM134.545 60.88H133.729V52.384H134.545V53.356H134.581C134.813 52.988 135.121 52.712 135.505 52.528C135.897 52.336 136.293 52.24 136.693 52.24C137.133 52.24 137.529 52.316 137.881 52.468C138.241 52.62 138.545 52.828 138.793 53.092C139.049 53.356 139.245 53.668 139.381 54.028C139.525 54.388 139.597 54.776 139.597 55.192C139.597 55.608 139.525 55.996 139.381 56.356C139.245 56.716 139.049 57.028 138.793 57.292C138.545 57.556 138.241 57.764 137.881 57.916C137.529 58.068 137.133 58.144 136.693 58.144C136.293 58.144 135.897 58.052 135.505 57.868C135.121 57.676 134.813 57.404 134.581 57.052H134.545V60.88ZM138.733 55.192C138.733 54.88 138.685 54.588 138.589 54.316C138.493 54.036 138.353 53.796 138.169 53.596C137.993 53.388 137.773 53.224 137.509 53.104C137.245 52.984 136.945 52.924 136.609 52.924C136.297 52.924 136.009 52.984 135.745 53.104C135.481 53.216 135.253 53.376 135.061 53.584C134.869 53.784 134.717 54.024 134.605 54.304C134.501 54.576 134.449 54.872 134.449 55.192C134.449 55.512 134.501 55.812 134.605 56.092C134.717 56.364 134.869 56.6 135.061 56.8C135.253 57 135.481 57.16 135.745 57.28C136.009 57.392 136.297 57.448 136.609 57.448C136.945 57.448 137.245 57.392 137.509 57.28C137.773 57.16 137.993 57 138.169 56.8C138.353 56.592 138.493 56.352 138.589 56.08C138.685 55.8 138.733 55.504 138.733 55.192ZM143.355 53.068H141.771V56.344C141.771 56.552 141.791 56.724 141.831 56.86C141.871 56.996 141.927 57.104 141.999 57.184C142.079 57.256 142.171 57.308 142.275 57.34C142.379 57.364 142.491 57.376 142.611 57.376C142.723 57.376 142.839 57.36 142.959 57.328C143.087 57.296 143.207 57.252 143.319 57.196L143.355 57.904C143.211 57.96 143.059 58 142.899 58.024C142.747 58.056 142.579 58.072 142.395 58.072C142.243 58.072 142.083 58.052 141.915 58.012C141.747 57.972 141.591 57.896 141.447 57.784C141.303 57.672 141.183 57.52 141.087 57.328C140.999 57.136 140.955 56.884 140.955 56.572V53.068H139.791V52.384H140.955V50.8H141.771V52.384H143.355V53.068ZM149.688 55.192C149.688 55.616 149.612 56.008 149.46 56.368C149.316 56.728 149.112 57.04 148.848 57.304C148.584 57.568 148.268 57.776 147.9 57.928C147.532 58.072 147.128 58.144 146.688 58.144C146.256 58.144 145.856 58.072 145.488 57.928C145.12 57.776 144.804 57.568 144.54 57.304C144.276 57.04 144.068 56.728 143.916 56.368C143.772 56.008 143.7 55.616 143.7 55.192C143.7 54.768 143.772 54.376 143.916 54.016C144.068 53.656 144.276 53.344 144.54 53.08C144.804 52.816 145.12 52.612 145.488 52.468C145.856 52.316 146.256 52.24 146.688 52.24C147.128 52.24 147.532 52.316 147.9 52.468C148.268 52.612 148.584 52.816 148.848 53.08C149.112 53.344 149.316 53.656 149.46 54.016C149.612 54.376 149.688 54.768 149.688 55.192ZM148.824 55.192C148.824 54.88 148.772 54.588 148.668 54.316C148.572 54.036 148.432 53.796 148.248 53.596C148.064 53.388 147.84 53.224 147.576 53.104C147.312 52.984 147.016 52.924 146.688 52.924C146.36 52.924 146.064 52.984 145.8 53.104C145.544 53.224 145.324 53.388 145.14 53.596C144.956 53.796 144.812 54.036 144.708 54.316C144.612 54.588 144.564 54.88 144.564 55.192C144.564 55.504 144.612 55.8 144.708 56.08C144.812 56.352 144.956 56.592 145.14 56.8C145.324 57 145.544 57.16 145.8 57.28C146.064 57.392 146.36 57.448 146.688 57.448C147.016 57.448 147.312 57.392 147.576 57.28C147.84 57.16 148.064 57 148.248 56.8C148.432 56.592 148.572 56.352 148.668 56.08C148.772 55.8 148.824 55.504 148.824 55.192ZM154.965 53.668C154.829 53.452 154.629 53.276 154.365 53.14C154.109 52.996 153.829 52.924 153.525 52.924C153.197 52.924 152.901 52.984 152.637 53.104C152.373 53.216 152.145 53.376 151.953 53.584C151.769 53.784 151.625 54.024 151.521 54.304C151.425 54.576 151.377 54.872 151.377 55.192C151.377 55.512 151.425 55.808 151.521 56.08C151.625 56.352 151.769 56.592 151.953 56.8C152.137 57 152.361 57.16 152.625 57.28C152.889 57.392 153.185 57.448 153.513 57.448C153.873 57.448 154.177 57.38 154.425 57.244C154.673 57.108 154.877 56.932 155.037 56.716L155.649 57.172C155.409 57.468 155.113 57.704 154.761 57.88C154.417 58.056 154.001 58.144 153.513 58.144C153.057 58.144 152.645 58.072 152.277 57.928C151.909 57.776 151.593 57.568 151.329 57.304C151.073 57.04 150.873 56.728 150.729 56.368C150.585 56.008 150.513 55.616 150.513 55.192C150.513 54.768 150.585 54.376 150.729 54.016C150.873 53.656 151.073 53.344 151.329 53.08C151.593 52.816 151.909 52.612 152.277 52.468C152.645 52.316 153.057 52.24 153.513 52.24C153.889 52.24 154.269 52.324 154.653 52.492C155.045 52.652 155.361 52.892 155.601 53.212L154.965 53.668ZM160.478 58C160.462 57.848 160.45 57.68 160.442 57.496C160.434 57.312 160.43 57.16 160.43 57.04H160.406C160.246 57.368 159.986 57.636 159.626 57.844C159.266 58.044 158.886 58.144 158.486 58.144C157.774 58.144 157.238 57.932 156.878 57.508C156.526 57.084 156.35 56.524 156.35 55.828V52.384H157.166V55.492C157.166 55.788 157.19 56.056 157.238 56.296C157.286 56.536 157.366 56.744 157.478 56.92C157.598 57.088 157.754 57.22 157.946 57.316C158.146 57.412 158.394 57.46 158.69 57.46C158.906 57.46 159.114 57.416 159.314 57.328C159.522 57.24 159.706 57.108 159.866 56.932C160.026 56.748 160.154 56.52 160.25 56.248C160.346 55.968 160.394 55.64 160.394 55.264V52.384H161.21V56.764C161.21 56.916 161.214 57.112 161.222 57.352C161.23 57.592 161.242 57.808 161.258 58H160.478ZM162.848 53.62C162.848 53.468 162.844 53.272 162.836 53.032C162.828 52.792 162.816 52.576 162.8 52.384H163.58C163.596 52.536 163.608 52.704 163.616 52.888C163.624 53.072 163.628 53.224 163.628 53.344H163.652C163.812 53.016 164.052 52.752 164.372 52.552C164.692 52.344 165.052 52.24 165.452 52.24C165.556 52.24 165.648 52.244 165.728 52.252C165.816 52.26 165.904 52.276 165.992 52.3L165.884 53.068C165.836 53.052 165.756 53.036 165.644 53.02C165.532 53.004 165.42 52.996 165.308 52.996C165.092 52.996 164.884 53.036 164.684 53.116C164.484 53.196 164.308 53.324 164.156 53.5C164.012 53.668 163.892 53.888 163.796 54.16C163.708 54.424 163.664 54.744 163.664 55.12V58H162.848V53.62ZM166.649 53.62C166.649 53.468 166.645 53.272 166.637 53.032C166.629 52.792 166.617 52.576 166.601 52.384H167.381C167.397 52.536 167.409 52.704 167.417 52.888C167.425 53.072 167.429 53.224 167.429 53.344H167.453C167.613 53.016 167.853 52.752 168.173 52.552C168.493 52.344 168.853 52.24 169.253 52.24C169.357 52.24 169.449 52.244 169.529 52.252C169.617 52.26 169.705 52.276 169.793 52.3L169.685 53.068C169.637 53.052 169.557 53.036 169.445 53.02C169.333 53.004 169.221 52.996 169.109 52.996C168.893 52.996 168.685 53.036 168.485 53.116C168.285 53.196 168.109 53.324 167.957 53.5C167.813 53.668 167.693 53.888 167.597 54.16C167.509 54.424 167.465 54.744 167.465 55.12V58H166.649V53.62ZM174.523 54.76C174.499 54.232 174.327 53.796 174.007 53.452C173.695 53.1 173.247 52.924 172.663 52.924C172.391 52.924 172.139 52.976 171.907 53.08C171.675 53.176 171.471 53.312 171.295 53.488C171.119 53.656 170.979 53.852 170.875 54.076C170.771 54.292 170.711 54.52 170.695 54.76H174.523ZM175.351 55.024C175.351 55.08 175.351 55.14 175.351 55.204C175.351 55.268 175.347 55.336 175.339 55.408H170.683C170.691 55.688 170.747 55.952 170.851 56.2C170.955 56.448 171.099 56.664 171.283 56.848C171.467 57.032 171.683 57.18 171.931 57.292C172.179 57.396 172.447 57.448 172.735 57.448C173.159 57.448 173.523 57.352 173.827 57.16C174.139 56.96 174.375 56.732 174.535 56.476L175.147 56.956C174.811 57.38 174.439 57.684 174.031 57.868C173.631 58.052 173.199 58.144 172.735 58.144C172.319 58.144 171.931 58.072 171.571 57.928C171.219 57.776 170.915 57.568 170.659 57.304C170.403 57.04 170.199 56.728 170.047 56.368C169.903 56.008 169.831 55.616 169.831 55.192C169.831 54.768 169.903 54.376 170.047 54.016C170.191 53.656 170.391 53.344 170.647 53.08C170.903 52.816 171.203 52.612 171.547 52.468C171.891 52.316 172.263 52.24 172.663 52.24C173.103 52.24 173.491 52.316 173.827 52.468C174.163 52.612 174.443 52.812 174.667 53.068C174.891 53.316 175.059 53.608 175.171 53.944C175.291 54.28 175.351 54.64 175.351 55.024ZM177.315 52.384C177.331 52.536 177.343 52.704 177.351 52.888C177.359 53.072 177.363 53.224 177.363 53.344H177.387C177.547 53.016 177.807 52.752 178.167 52.552C178.527 52.344 178.907 52.24 179.307 52.24C180.019 52.24 180.551 52.452 180.903 52.876C181.263 53.3 181.443 53.86 181.443 54.556V58H180.627V54.892C180.627 54.596 180.603 54.328 180.555 54.088C180.507 53.848 180.423 53.644 180.303 53.476C180.191 53.3 180.035 53.164 179.835 53.068C179.643 52.972 179.399 52.924 179.103 52.924C178.887 52.924 178.675 52.968 178.467 53.056C178.267 53.144 178.087 53.28 177.927 53.464C177.767 53.64 177.639 53.868 177.543 54.148C177.447 54.42 177.399 54.744 177.399 55.12V58H176.583V53.62C176.583 53.468 176.579 53.272 176.571 53.032C176.563 52.792 176.551 52.576 176.535 52.384H177.315ZM187.077 53.668C186.941 53.452 186.741 53.276 186.477 53.14C186.221 52.996 185.941 52.924 185.637 52.924C185.309 52.924 185.013 52.984 184.749 53.104C184.485 53.216 184.257 53.376 184.065 53.584C183.881 53.784 183.737 54.024 183.633 54.304C183.537 54.576 183.489 54.872 183.489 55.192C183.489 55.512 183.537 55.808 183.633 56.08C183.737 56.352 183.881 56.592 184.065 56.8C184.249 57 184.473 57.16 184.737 57.28C185.001 57.392 185.297 57.448 185.625 57.448C185.985 57.448 186.289 57.38 186.537 57.244C186.785 57.108 186.989 56.932 187.149 56.716L187.761 57.172C187.521 57.468 187.225 57.704 186.873 57.88C186.529 58.056 186.113 58.144 185.625 58.144C185.169 58.144 184.757 58.072 184.389 57.928C184.021 57.776 183.705 57.568 183.441 57.304C183.185 57.04 182.985 56.728 182.841 56.368C182.697 56.008 182.625 55.616 182.625 55.192C182.625 54.768 182.697 54.376 182.841 54.016C182.985 53.656 183.185 53.344 183.441 53.08C183.705 52.816 184.021 52.612 184.389 52.468C184.757 52.316 185.169 52.24 185.625 52.24C186.001 52.24 186.381 52.324 186.765 52.492C187.157 52.652 187.473 52.892 187.713 53.212L187.077 53.668ZM189.338 58H188.522V52.384H189.338V58ZM189.506 50.224C189.506 50.392 189.446 50.532 189.326 50.644C189.206 50.748 189.074 50.8 188.93 50.8C188.786 50.8 188.654 50.748 188.534 50.644C188.414 50.532 188.354 50.392 188.354 50.224C188.354 50.056 188.414 49.92 188.534 49.816C188.654 49.704 188.786 49.648 188.93 49.648C189.074 49.648 189.206 49.704 189.326 49.816C189.446 49.92 189.506 50.056 189.506 50.224ZM195.271 54.76C195.247 54.232 195.075 53.796 194.755 53.452C194.443 53.1 193.995 52.924 193.411 52.924C193.139 52.924 192.887 52.976 192.655 53.08C192.423 53.176 192.219 53.312 192.043 53.488C191.867 53.656 191.727 53.852 191.623 54.076C191.519 54.292 191.459 54.52 191.443 54.76H195.271ZM196.099 55.024C196.099 55.08 196.099 55.14 196.099 55.204C196.099 55.268 196.095 55.336 196.087 55.408H191.431C191.439 55.688 191.495 55.952 191.599 56.2C191.703 56.448 191.847 56.664 192.031 56.848C192.215 57.032 192.431 57.18 192.679 57.292C192.927 57.396 193.195 57.448 193.483 57.448C193.907 57.448 194.271 57.352 194.575 57.16C194.887 56.96 195.123 56.732 195.283 56.476L195.895 56.956C195.559 57.38 195.187 57.684 194.779 57.868C194.379 58.052 193.947 58.144 193.483 58.144C193.067 58.144 192.679 58.072 192.319 57.928C191.967 57.776 191.663 57.568 191.407 57.304C191.151 57.04 190.947 56.728 190.795 56.368C190.651 56.008 190.579 55.616 190.579 55.192C190.579 54.768 190.651 54.376 190.795 54.016C190.939 53.656 191.139 53.344 191.395 53.08C191.651 52.816 191.951 52.612 192.295 52.468C192.639 52.316 193.011 52.24 193.411 52.24C193.851 52.24 194.239 52.316 194.575 52.468C194.911 52.612 195.191 52.812 195.415 53.068C195.639 53.316 195.807 53.608 195.919 53.944C196.039 54.28 196.099 54.64 196.099 55.024ZM200.319 53.716C200.199 53.484 200.015 53.296 199.767 53.152C199.527 53 199.251 52.924 198.939 52.924C198.795 52.924 198.651 52.94 198.507 52.972C198.363 53.004 198.235 53.056 198.123 53.128C198.011 53.2 197.919 53.292 197.847 53.404C197.783 53.516 197.751 53.648 197.751 53.8C197.751 54.064 197.859 54.268 198.075 54.412C198.291 54.548 198.631 54.664 199.095 54.76C199.759 54.896 200.247 55.096 200.559 55.36C200.879 55.616 201.039 55.964 201.039 56.404C201.039 56.724 200.975 56.996 200.847 57.22C200.727 57.436 200.567 57.616 200.367 57.76C200.167 57.896 199.939 57.992 199.683 58.048C199.435 58.112 199.183 58.144 198.927 58.144C198.503 58.144 198.091 58.056 197.691 57.88C197.291 57.704 196.963 57.428 196.707 57.052L197.355 56.572C197.499 56.82 197.711 57.028 197.991 57.196C198.271 57.364 198.579 57.448 198.915 57.448C199.091 57.448 199.259 57.432 199.419 57.4C199.579 57.368 199.719 57.312 199.839 57.232C199.959 57.152 200.055 57.052 200.127 56.932C200.199 56.804 200.235 56.648 200.235 56.464C200.235 56.168 200.091 55.948 199.803 55.804C199.523 55.652 199.115 55.512 198.579 55.384C198.411 55.344 198.231 55.296 198.039 55.24C197.855 55.176 197.683 55.088 197.523 54.976C197.363 54.856 197.231 54.708 197.127 54.532C197.023 54.356 196.971 54.136 196.971 53.872C196.971 53.584 197.027 53.34 197.139 53.14C197.251 52.932 197.399 52.764 197.583 52.636C197.775 52.5 197.991 52.4 198.231 52.336C198.471 52.272 198.719 52.24 198.975 52.24C199.367 52.24 199.747 52.328 200.115 52.504C200.483 52.68 200.759 52.928 200.943 53.248L200.319 53.716ZM203.268 57.424C203.268 57.592 203.208 57.744 203.088 57.88C202.968 58.008 202.812 58.072 202.62 58.072C202.428 58.072 202.272 58.008 202.152 57.88C202.032 57.744 201.972 57.592 201.972 57.424C201.972 57.256 202.032 57.108 202.152 56.98C202.272 56.844 202.428 56.776 202.62 56.776C202.812 56.776 202.968 56.844 203.088 56.98C203.208 57.108 203.268 57.256 203.268 57.424ZM204.722 58H203.774L207.446 49.504H208.286L211.934 58H210.974L210.038 55.768H205.646L204.722 58ZM205.97 54.976H209.714L207.842 50.464L205.97 54.976ZM213.441 58H212.625V52.384H213.441V58ZM213.609 50.224C213.609 50.392 213.549 50.532 213.429 50.644C213.309 50.748 213.177 50.8 213.033 50.8C212.889 50.8 212.757 50.748 212.637 50.644C212.517 50.532 212.457 50.392 212.457 50.224C212.457 50.056 212.517 49.92 212.637 49.816C212.757 49.704 212.889 49.648 213.033 49.648C213.177 49.648 213.309 49.704 213.429 49.816C213.549 49.92 213.609 50.056 213.609 50.224Z" fill="#96999C"/>
<path d="M219.812 9.152H218.216V13.448H217.496V9.152H215.864V8.504H219.812V9.152ZM226.136 13.448H225.416V9.296H225.392L223.724 13.448H223.256L221.588 9.296H221.564V13.448H220.844V8.504H221.96L223.508 12.296L225.056 8.504H226.136V13.448Z" fill="#366CE5"/>
</svg>
