<svg width="16" height="16" viewBox="0 0 16 16" fill="none" xmlns="http://www.w3.org/2000/svg">
<path d="M15.9783 1.58361C15.9777 1.52105 15.9597 1.45984 15.926 1.40662C15.8924 1.35341 15.8445 1.31023 15.7875 1.28178C15.7305 1.25333 15.6666 1.2407 15.6028 1.24526C15.539 1.24983 15.4776 1.27141 15.4255 1.30767L14.0524 2.26984L13.9443 2.34594C12.4647 0.902563 10.434 0 8.18376 0C3.67111 0 0 3.58903 0 8C0 12.411 3.67134 16 8.18376 16C9.52375 16.0002 10.8433 15.6788 12.0264 15.0638C13.2096 14.4489 14.2201 13.5593 14.9693 12.4733C14.9995 12.4298 15.0206 12.3809 15.0315 12.3293C15.0423 12.2778 15.0427 12.2247 15.0325 12.1731C15.0223 12.1214 15.0017 12.0722 14.9721 12.0284C14.9424 11.9845 14.9042 11.9468 14.8595 11.9174L12.8121 10.5284C12.7158 10.4654 12.598 10.4423 12.4842 10.4639C12.3705 10.4856 12.2702 10.5503 12.2051 10.644C11.3 11.9519 9.80032 12.7328 8.19139 12.7328C5.52145 12.7328 3.34909 10.6097 3.34909 8.00045C3.34909 5.39122 5.52145 3.26815 8.19139 3.26815C9.31822 3.26815 10.3517 3.65112 11.1746 4.2843L10.9433 4.44688L9.56932 5.40883C9.51751 5.44555 9.477 5.49547 9.45222 5.55316C9.42745 5.61084 9.41935 5.67406 9.42881 5.73594C9.43827 5.79781 9.46493 5.85595 9.50588 5.90403C9.54683 5.95211 9.6005 5.98827 9.66103 6.00858L15.5391 7.96613C15.6456 8.00248 15.7623 7.98487 15.8552 7.92029C15.9473 7.8548 16.0005 7.75161 16 7.64232L15.9783 1.58361Z" fill="#366CE5"/>
</svg>
