<svg width="54" height="44" viewBox="0 0 54 44" fill="none" xmlns="http://www.w3.org/2000/svg">
<path d="M5.13546 17.5251C5.41301 18.0026 6.02508 18.1647 6.50256 17.8871L14.2835 13.3643C14.761 13.0867 14.9231 12.4747 14.6456 11.9972C14.368 11.5197 13.7559 11.3576 13.2785 11.6352L6.36203 15.6555L2.34172 8.73906C2.06417 8.26158 1.4521 8.0995 0.974622 8.37705C0.497142 8.65459 0.335063 9.26666 0.612607 9.74414L5.13546 17.5251ZM14.7668 4.64327L14.2067 3.81485L14.7668 4.64327ZM29.4246 1.18499L29.2925 2.17624L29.4246 1.18499ZM42.6983 8.36417L43.454 7.70923L42.6983 8.36417ZM48.8645 26.4749C48.587 25.9974 47.9749 25.8353 47.4974 26.1129L39.7165 30.6357C39.239 30.9133 39.0769 31.5253 39.3544 32.0028C39.632 32.4803 40.2441 32.6424 40.7215 32.3648L47.638 28.3445L51.6583 35.2609C51.9358 35.7384 52.5479 35.9005 53.0254 35.623C53.5029 35.3454 53.6649 34.7333 53.3874 34.2559L48.8645 26.4749ZM39.2332 39.3567L38.673 38.5283L39.2332 39.3567ZM24.5754 42.815L24.7075 41.8238H24.7075L24.5754 42.815ZM11.3017 35.6358L10.546 36.2908L11.3017 35.6358ZM6.9667 17.2786C8.2468 12.4445 11.2193 8.24894 15.3269 5.47169L14.2067 3.81485C9.69529 6.86509 6.43619 11.4689 5.03334 16.7666L6.9667 17.2786ZM15.3269 5.47169C19.4343 2.69466 24.3976 1.52416 29.2925 2.17624L29.5566 0.193751C24.1741 -0.523286 18.7185 0.764395 14.2067 3.81485L15.3269 5.47169ZM29.2925 2.17624C34.1876 2.82833 38.6839 5.25914 41.9426 9.01911L43.454 7.70923C39.8778 3.583 34.9391 0.910773 29.5566 0.193751L29.2925 2.17624ZM41.9426 9.01911C45.2016 12.7794 47 17.6123 47 22.6176H49C49 17.1338 47.0299 11.8352 43.454 7.70923L41.9426 9.01911ZM47.0333 26.7214C45.7532 31.5555 42.7807 35.7511 38.673 38.5283L39.7933 40.1852C44.3047 37.1349 47.5638 32.5311 48.9667 27.2334L47.0333 26.7214ZM38.673 38.5283C34.5657 41.3053 29.6024 42.4758 24.7075 41.8238L24.4434 43.8062C29.8259 44.5233 35.2815 43.2356 39.7933 40.1852L38.673 38.5283ZM24.7075 41.8238C19.8124 41.1717 15.3161 38.7409 12.0574 34.9809L10.546 36.2908C14.1222 40.417 19.0609 43.0892 24.4434 43.8062L24.7075 41.8238ZM12.0574 34.9809C8.79839 31.2206 7 26.3877 7 21.3824H5C5 26.8662 6.97011 32.1648 10.546 36.2908L12.0574 34.9809Z" fill="#406EDC"/>
</svg>
