<svg width="14" height="16" viewBox="0 0 14 16" fill="none" xmlns="http://www.w3.org/2000/svg">
<path d="M7.00001 12C5.96338 12 5.04876 11.3856 4.50975 10.4524C4.18791 9.89529 4 9.22448 4 8.50299C4 6.62687 6.71574 3.31344 6.83098 3.17463L6.97311 3L7.11906 3.17014C7.23814 3.30895 10 6.62238 10 8.4985C10 9.22215 9.81184 9.89442 9.48962 10.4524C8.95053 11.3861 8.03619 12 7.00001 12ZM6.97696 3.67612C6.7388 3.97612 6.23945 4.62537 5.74392 5.38656C4.86428 6.73881 4.39949 7.81343 4.39949 8.4985C4.39949 10.1686 5.56721 11.5299 7.00001 11.5299C8.43278 11.5299 9.60051 10.1686 9.60051 8.4985C9.60051 7.81343 9.12803 6.73881 8.23304 5.38656C7.72984 4.62986 7.21894 3.97612 6.97696 3.67612Z" fill="url(#paint0_linear)"/>
<path d="M6.99516 14C4.23838 14 2 11.7067 2 8.89339C2 6.13949 5.75968 2.29593 5.91956 2.13745C6.01646 2.03838 6.1812 2.03838 6.2781 2.13745C6.375 2.23651 6.375 2.40492 6.2781 2.50396C6.23935 2.54361 2.50872 6.35745 2.50872 8.89339C2.50872 11.4244 4.52423 13.4849 7.00001 13.4849C9.47579 13.4849 11.4913 11.4244 11.4913 8.89339C11.4913 7.85328 10.8324 6.41687 9.58237 4.7279C8.62307 3.43514 7.65892 2.45444 7.64924 2.44454C7.54748 2.34547 7.54748 2.18203 7.64924 2.078C7.74611 1.974 7.90602 1.974 8.00775 2.078C8.17248 2.24144 12 6.13456 12 8.89339C11.9903 11.7067 9.75193 14 6.99516 14Z" fill="url(#paint1_linear)"/>
<path d="M6.99998 16C3.14024 16 0 12.8269 0 8.92679C0 7.31487 0.803186 5.33098 2.38167 3.03712C3.5474 1.34633 4.69084 0.140198 4.74105 0.0895003C4.85258 -0.0288745 5.03667 -0.0288749 5.15378 0.0838514C5.2709 0.196578 5.2709 0.382561 5.15937 0.500901C5.14819 0.512198 3.99364 1.72956 2.85578 3.38092C1.36653 5.53952 0.580078 7.45577 0.580078 8.92679C0.580078 12.5 3.45817 15.4139 6.99998 15.4139C10.5418 15.4139 13.4199 12.5057 13.4199 8.92679C13.4199 7.45577 12.6279 5.53952 11.1275 3.38092C9.97848 1.72956 8.81275 0.512198 8.8016 0.500901C8.69004 0.382561 8.69004 0.196578 8.80716 0.0838514C8.92431 -0.0288749 9.10836 -0.0288745 9.21992 0.0895003C9.41512 0.292394 14 5.10556 14 8.92679C14 12.8269 10.8598 16 6.99998 16Z" fill="url(#paint2_linear)"/>
<defs>
<linearGradient id="paint0_linear" x1="6.99998" y1="12.0015" x2="6.99998" y2="3.00224" gradientUnits="userSpaceOnUse">
<stop stop-color="#05AAC5"/>
<stop offset="1" stop-color="#71E0EC"/>
</linearGradient>
<linearGradient id="paint1_linear" x1="6.99515" y1="13.9993" x2="6.99515" y2="2.00324" gradientUnits="userSpaceOnUse">
<stop stop-color="#05AAC5"/>
<stop offset="1" stop-color="#71E0EC"/>
</linearGradient>
<linearGradient id="paint2_linear" x1="6.99998" y1="15.9985" x2="6.99998" y2="-0.000736201" gradientUnits="userSpaceOnUse">
<stop stop-color="#05AAC5"/>
<stop offset="1" stop-color="#71E0EC"/>
</linearGradient>
</defs>
</svg>
