<svg width="193" height="81" viewBox="0 0 193 81" fill="none" xmlns="http://www.w3.org/2000/svg">
<g filter="url(#filter0_d)">
<path d="M63.9016 34.9508C63.9016 47.6262 53.6262 57.9016 40.9508 57.9016C28.2754 57.9016 18 47.6262 18 34.9508C18 22.2754 28.2754 12 40.9508 12C53.6262 12 63.9016 22.2754 63.9016 34.9508Z" fill="#651CE4"/>
</g>
<path d="M83.1056 27.9536C82.6638 27.3913 82.0814 26.9495 81.3585 26.6282C80.6556 26.2868 79.9728 26.1161 79.3101 26.1161C78.9687 26.1161 78.6173 26.1462 78.2558 26.2065C77.9144 26.2667 77.6031 26.3872 77.322 26.568C77.0408 26.7286 76.7998 26.9495 76.599 27.2307C76.4183 27.4917 76.3279 27.8331 76.3279 28.2548C76.3279 28.6163 76.3982 28.9175 76.5388 29.1585C76.6994 29.3995 76.9203 29.6104 77.2015 29.7911C77.5027 29.9718 77.8541 30.1425 78.2558 30.3032C78.6574 30.4438 79.1093 30.5944 79.6113 30.755C80.3343 30.996 81.0873 31.2671 81.8705 31.5684C82.6537 31.8495 83.3667 32.2311 84.0093 32.713C84.6519 33.195 85.1841 33.7975 85.6058 34.5204C86.0275 35.2233 86.2384 36.1069 86.2384 37.1712C86.2384 38.3962 86.0074 39.4606 85.5455 40.3643C85.1037 41.2479 84.5013 41.9809 83.7382 42.5632C82.9751 43.1456 82.1015 43.5774 81.1175 43.8585C80.1335 44.1397 79.1193 44.2803 78.0751 44.2803C76.5488 44.2803 75.0728 44.0192 73.647 43.4971C72.2212 42.9548 71.0363 42.1917 70.0925 41.2077L73.4662 37.7737C73.9884 38.4163 74.6712 38.9585 75.5146 39.4003C76.3781 39.8221 77.2316 40.0329 78.0751 40.0329C78.4566 40.0329 78.8281 39.9928 79.1896 39.9124C79.5511 39.8321 79.8623 39.7016 80.1234 39.5208C80.4046 39.3401 80.6255 39.0991 80.7861 38.7979C80.9468 38.4966 81.0271 38.1352 81.0271 37.7134C81.0271 37.3118 80.9267 36.9704 80.7259 36.6893C80.5251 36.4081 80.2339 36.1571 79.8523 35.9362C79.4908 35.6952 79.0289 35.4843 78.4667 35.3036C77.9244 35.1028 77.3019 34.8919 76.599 34.671C75.9162 34.4501 75.2435 34.1891 74.5808 33.8878C73.9382 33.5866 73.3558 33.205 72.8337 32.7432C72.3316 32.2612 71.9199 31.6889 71.5986 31.0262C71.2974 30.3434 71.1468 29.52 71.1468 28.5561C71.1468 27.3712 71.3878 26.3571 71.8697 25.5137C72.3517 24.6702 72.9843 23.9774 73.7675 23.4352C74.5507 22.893 75.4343 22.5014 76.4183 22.2604C77.4023 21.9993 78.3964 21.8688 79.4005 21.8688C80.6054 21.8688 81.8304 22.0897 83.0755 22.5315C84.3406 22.9733 85.4451 23.6259 86.389 24.4895L83.1056 27.9536ZM96.3772 43.738V41.6596H96.317C96.1362 42.0009 95.8953 42.3223 95.594 42.6235C95.3129 42.9247 94.9715 43.1858 94.5698 43.4067C94.1883 43.6276 93.7565 43.8083 93.2746 43.9489C92.8127 44.0895 92.3207 44.1598 91.7985 44.1598C90.7944 44.1598 89.9409 43.979 89.2381 43.6175C88.5553 43.2561 87.993 42.7942 87.5512 42.2319C87.1295 41.6495 86.8182 40.9968 86.6174 40.2739C86.4366 39.5309 86.3463 38.7778 86.3463 38.0147V28.7368H91.3166V36.87C91.3166 37.2917 91.3467 37.6934 91.4069 38.0749C91.4672 38.4565 91.5776 38.7979 91.7383 39.0991C91.919 39.4003 92.15 39.6413 92.4311 39.8221C92.7123 39.9827 93.0838 40.063 93.5457 40.063C94.4092 40.063 95.0619 39.7417 95.5037 39.0991C95.9655 38.4565 96.1965 37.7034 96.1965 36.8399V28.7368H101.137V43.738H96.3772ZM111.982 43.738V35.5446C111.982 35.1229 111.941 34.7212 111.861 34.3397C111.801 33.9581 111.69 33.6268 111.53 33.3456C111.369 33.0444 111.138 32.8134 110.837 32.6528C110.556 32.4721 110.194 32.3817 109.752 32.3817C109.311 32.3817 108.919 32.4721 108.578 32.6528C108.256 32.8134 107.985 33.0444 107.764 33.3456C107.543 33.6468 107.373 33.9983 107.252 34.3999C107.152 34.7815 107.102 35.1831 107.102 35.6048V43.738H102.131V28.7368H106.921V30.8153H106.981C107.162 30.494 107.393 30.1827 107.674 29.8815C107.975 29.5602 108.317 29.2891 108.698 29.0682C109.1 28.8473 109.532 28.6665 109.993 28.5259C110.455 28.3854 110.947 28.3151 111.469 28.3151C112.474 28.3151 113.327 28.4958 114.03 28.8573C114.733 29.2188 115.295 29.6907 115.717 30.2731C116.159 30.8354 116.47 31.488 116.651 32.2311C116.851 32.9741 116.952 33.7171 116.952 34.4602V43.738H111.982Z" fill="#651CE4"/>
<path d="M136.922 43.738H131.952L129 34.3999H128.94L126.048 43.738H121.078L115.897 28.7368H121.228L123.819 38.2255H123.909L126.59 28.7368H131.561L134.332 38.2255H134.392L137.013 28.7368H142.134L136.922 43.738ZM150.052 37.2014H149.419C148.877 37.2014 148.325 37.2315 147.762 37.2917C147.22 37.3319 146.728 37.4223 146.286 37.5628C145.865 37.7034 145.513 37.9143 145.232 38.1954C144.951 38.4565 144.81 38.8079 144.81 39.2497C144.81 39.5309 144.871 39.7718 144.991 39.9727C145.132 40.1735 145.302 40.3341 145.503 40.4546C145.704 40.5751 145.935 40.6655 146.196 40.7257C146.457 40.7659 146.708 40.786 146.949 40.786C147.953 40.786 148.716 40.5149 149.238 39.9727C149.781 39.4104 150.052 38.6573 150.052 37.7134V37.2014ZM140.985 30.7852C141.868 29.9417 142.893 29.3091 144.057 28.8874C145.242 28.4657 146.447 28.2548 147.672 28.2548C148.937 28.2548 150.002 28.4155 150.865 28.7368C151.749 29.038 152.462 29.52 153.004 30.1827C153.546 30.8253 153.938 31.6487 154.179 32.6528C154.44 33.6368 154.57 34.8116 154.57 36.1772V43.738H150.052V42.1415H149.961C149.58 42.7641 148.997 43.246 148.214 43.5874C147.451 43.9288 146.618 44.0995 145.714 44.0995C145.112 44.0995 144.489 44.0192 143.846 43.8585C143.204 43.6979 142.611 43.4368 142.069 43.0753C141.547 42.7139 141.115 42.2319 140.774 41.6294C140.432 41.027 140.262 40.2839 140.262 39.4003C140.262 38.3159 140.553 37.4423 141.135 36.7796C141.738 36.1169 142.501 35.6048 143.425 35.2434C144.369 34.8819 145.413 34.6409 146.557 34.5204C147.702 34.3999 148.817 34.3397 149.901 34.3397V34.0987C149.901 33.3557 149.64 32.8134 149.118 32.4721C148.596 32.1106 147.953 31.9298 147.19 31.9298C146.487 31.9298 145.804 32.0805 145.142 32.3817C144.499 32.6829 143.947 33.0444 143.485 33.4661L140.985 30.7852ZM155.449 43.738V20.9651H160.449V43.738H155.449ZM161.552 43.738V20.9651H166.553V43.738H161.552ZM177.927 34.5204C177.927 33.7372 177.676 33.0645 177.174 32.5022C176.692 31.9399 175.959 31.6587 174.975 31.6587C174.493 31.6587 174.052 31.7391 173.65 31.8997C173.248 32.0403 172.897 32.2411 172.596 32.5022C172.294 32.7632 172.053 33.0745 171.873 33.436C171.692 33.7774 171.592 34.1389 171.571 34.5204H177.927ZM182.476 36.4182C182.476 36.619 182.476 36.8198 182.476 37.0206C182.476 37.2214 182.466 37.4122 182.446 37.593H171.571C171.612 38.0147 171.732 38.3962 171.933 38.7376C172.154 39.079 172.425 39.3802 172.746 39.6413C173.088 39.8823 173.459 40.0731 173.861 40.2137C174.283 40.3542 174.714 40.4245 175.156 40.4245C175.939 40.4245 176.602 40.2839 177.144 40.0028C177.686 39.7016 178.128 39.32 178.47 38.8581L181.904 41.027C181.201 42.0512 180.267 42.8444 179.102 43.4067C177.958 43.9489 176.622 44.22 175.096 44.22C173.971 44.22 172.907 44.0493 171.903 43.7079C170.899 43.3464 170.015 42.8343 169.252 42.1716C168.509 41.4889 167.917 40.6555 167.475 39.6714C167.053 38.6874 166.842 37.5628 166.842 36.2977C166.842 35.0727 167.053 33.9682 167.475 32.9841C167.896 31.98 168.469 31.1366 169.192 30.4538C169.915 29.7509 170.768 29.2087 171.752 28.8272C172.736 28.4456 173.801 28.2548 174.945 28.2548C176.05 28.2548 177.064 28.4456 177.988 28.8272C178.911 29.1887 179.705 29.7208 180.367 30.4237C181.03 31.1266 181.542 31.98 181.904 32.9841C182.285 33.9882 182.476 35.1329 182.476 36.4182ZM188.033 32.4419V38.1653C188.033 38.8682 188.163 39.4003 188.424 39.7618C188.705 40.1032 189.197 40.2739 189.9 40.2739C190.141 40.2739 190.392 40.2538 190.653 40.2137C190.934 40.1735 191.165 40.1132 191.346 40.0329L191.406 43.6477C191.065 43.7682 190.633 43.8686 190.111 43.9489C189.589 44.0493 189.067 44.0995 188.545 44.0995C187.541 44.0995 186.697 43.979 186.014 43.738C185.332 43.477 184.779 43.1155 184.358 42.6536C183.956 42.1716 183.665 41.6093 183.484 40.9667C183.303 40.304 183.213 39.571 183.213 38.7677V32.4419H180.803V28.7368H183.183V24.7907H188.033V28.7368H191.557V32.4419H188.033Z" fill="#F8FAFF"/>
<defs>
<filter id="filter0_d" x="0.786886" y="0.524591" width="80.3279" height="80.3279" filterUnits="userSpaceOnUse" color-interpolation-filters="sRGB">
<feFlood flood-opacity="0" result="BackgroundImageFix"/>
<feColorMatrix in="SourceAlpha" type="matrix" values="0 0 0 0 0 0 0 0 0 0 0 0 0 0 0 0 0 0 127 0"/>
<feOffset dy="5.7377"/>
<feGaussianBlur stdDeviation="8.60656"/>
<feColorMatrix type="matrix" values="0 0 0 0 0.432465 0 0 0 0 0.601162 0 0 0 0 0.979167 0 0 0 0.41 0"/>
<feBlend mode="normal" in2="BackgroundImageFix" result="effect1_dropShadow"/>
<feBlend mode="normal" in="SourceGraphic" in2="effect1_dropShadow" result="shape"/>
</filter>
</defs>
</svg>
