<svg width="16" height="16" viewBox="0 0 16 16" fill="none" xmlns="http://www.w3.org/2000/svg">
<path fill-rule="evenodd" clip-rule="evenodd" d="M1 8C0.999999 11.866 4.13401 15 8 15C11.866 15 15 11.866 15 8C15 4.13401 11.866 1 8 1C4.13401 0.999999 1 4.13401 1 8ZM0 8C0 12.4183 3.58172 16 8 16C12.4183 16 16 12.4183 16 8C16 3.58172 12.4183 0 8 0C3.58172 0 0 3.58172 0 8ZM6 3.29289L6.35355 3.64645L8.35355 5.64645L7.64645 6.35355L6.5 5.20711V12.5H5.5V5.20711L4.35355 6.35355L3.64645 5.64645L5.64645 3.64645L6 3.29289ZM9.64645 12.8536L10 13.2071L10.3536 12.8536L12.3536 10.8536L11.6464 10.1464L10.5 11.2929V4H9.5V11.2929L8.35355 10.1464L7.64645 10.8536L9.64645 12.8536Z" fill="#53DF11"/>
</svg>
