<svg width="16" height="16" viewBox="0 0 16 16" fill="none" xmlns="http://www.w3.org/2000/svg">
<path fill-rule="evenodd" clip-rule="evenodd" d="M8 15C4.13401 15 1 11.866 1 8C1 4.13401 4.13401 0.999999 8 1C11.866 1 15 4.13401 15 8C15 11.866 11.866 15 8 15ZM8 16C3.58172 16 4.10854e-07 12.4183 6.03983e-07 8C7.97112e-07 3.58172 3.58172 -5.4282e-07 8 -3.49691e-07C12.4183 -1.56562e-07 16 3.58172 16 8C16 12.4183 12.4183 16 8 16ZM11.1667 10.6667L11.1667 6.16667C11.1667 5.89052 10.9428 5.66667 10.6667 5.66667C10.3905 5.66667 10.1667 5.89052 10.1667 6.16667L10.1667 9.45956L5.68689 4.97978L4.97978 5.68689L9.45956 10.1667L6.16667 10.1667C5.89052 10.1667 5.66667 10.3905 5.66667 10.6667C5.66667 10.9428 5.89052 11.1667 6.16667 11.1667L10.6667 11.1667C10.9428 11.1667 11.1667 10.9428 11.1667 10.6667Z" fill="#53DF11"/>
</svg>
