<svg width="32" height="31" viewBox="0 0 32 31" fill="none" xmlns="http://www.w3.org/2000/svg">
<circle cx="15.5068" cy="15.5596" r="12" fill="#F5F5FB"/>
<path fill-rule="evenodd" clip-rule="evenodd" d="M31.3711 15.36C31.3711 23.8431 24.4619 30.72 15.939 30.72C7.41604 30.72 0.506836 23.8431 0.506836 15.36C0.506836 6.87691 7.41604 0 15.939 0C24.4619 0 31.3711 6.87691 31.3711 15.36ZM13.3673 15.0066C13.1677 15.0066 13.0099 15.167 13.0099 15.3599C13.0099 15.5529 13.1677 15.7133 13.3673 15.7133C13.5668 15.7133 13.7246 15.5529 13.7246 15.3599C13.7246 15.167 13.5668 15.0066 13.3673 15.0066ZM12.0099 15.3599C12.0099 14.6103 12.6198 14.0066 13.3673 14.0066C14.1147 14.0066 14.7246 14.6103 14.7246 15.3599C14.7246 16.1096 14.1147 16.7133 13.3673 16.7133C12.6198 16.7133 12.0099 16.1096 12.0099 15.3599ZM18.1542 15.3599C18.1542 15.167 18.3119 15.0066 18.5115 15.0066C18.7111 15.0066 18.8688 15.167 18.8688 15.3599C18.8688 15.5529 18.7111 15.7133 18.5115 15.7133C18.3119 15.7133 18.1542 15.5529 18.1542 15.3599ZM18.5115 14.0066C17.7641 14.0066 17.1542 14.6103 17.1542 15.3599C17.1542 16.1096 17.7641 16.7133 18.5115 16.7133C19.2589 16.7133 19.8688 16.1096 19.8688 15.3599C19.8688 14.6103 19.2589 14.0066 18.5115 14.0066ZM15.9396 11.38C14.8246 11.38 13.6951 11.581 12.2183 12.0009C11.9527 12.0765 11.6761 11.9224 11.6006 11.6568C11.5251 11.3912 11.6791 11.1146 11.9448 11.0391C12.5598 10.8642 13.1267 10.7231 13.6659 10.617L13.0468 9.07646C12.0341 9.21631 11.0918 9.48205 10.157 10.1268C9.38389 12.4498 8.96595 14.4573 8.80378 16.0506C8.63781 17.6814 8.74548 18.8244 8.97058 19.4296C9.2249 19.9563 9.59973 20.5377 10.0392 20.9813C10.465 21.4111 10.8942 21.6556 11.2911 21.6839C11.3232 21.6592 11.3683 21.6193 11.4249 21.5604C11.5627 21.4168 11.7267 21.2046 11.8854 20.9569C12.0432 20.7105 12.1864 20.4437 12.2883 20.1961C12.3324 20.0891 12.3658 19.9928 12.3898 19.9085C12.1019 19.8406 11.8109 19.7648 11.5161 19.6809C11.2505 19.6054 11.0964 19.3288 11.1719 19.0632C11.2474 18.7976 11.524 18.6435 11.7896 18.7191C14.7009 19.547 17.1782 19.547 20.0895 18.7191C20.3551 18.6435 20.6316 18.7976 20.7072 19.0632C20.7827 19.3288 20.6286 19.6054 20.363 19.6809C20.0704 19.7641 19.7816 19.8395 19.4959 19.9069C19.5215 19.9865 19.5566 20.0778 19.603 20.1797C19.7149 20.4259 19.8722 20.6922 20.0457 20.939C20.2199 21.1867 20.4003 21.4002 20.5521 21.5457C20.6242 21.6148 20.6806 21.6596 20.7191 21.685C21.158 21.6622 21.6234 21.4083 22.0765 20.9727C22.5389 20.5282 22.9325 19.9469 23.1991 19.4214C23.4337 18.8202 23.5469 17.6818 23.3728 16.0531C23.2027 14.4622 22.7643 12.4567 21.9528 10.1353C20.9577 9.48331 19.907 9.21527 18.8328 9.07464L18.213 10.617C18.7522 10.723 19.3192 10.8641 19.9344 11.0391C20.2 11.1146 20.3541 11.3912 20.2785 11.6568C20.203 11.9224 19.9264 12.0765 19.6608 12.0009C18.184 11.581 17.0545 11.38 15.9396 11.38ZM13.371 20.1107C15.114 20.4167 16.7698 20.4164 18.5129 20.1098C18.559 20.2761 18.6229 20.4402 18.6926 20.5935C18.8353 20.9074 19.0263 21.2277 19.2278 21.5143C19.4287 21.7999 19.6502 22.0664 19.8601 22.2676C19.9644 22.3675 20.0763 22.4615 20.1903 22.5338C20.2893 22.5967 20.456 22.6866 20.6549 22.6866C21.4833 22.6866 22.209 22.2324 22.7695 21.6937C23.3373 21.148 23.7971 20.4582 24.1023 19.8512C24.1085 19.8388 24.1143 19.826 24.1195 19.8131C24.4517 18.9867 24.5485 17.6431 24.3672 15.9468C24.1837 14.231 23.709 12.0949 22.8408 9.6462C22.8058 9.54741 22.7406 9.46213 22.6544 9.4024C21.3047 8.46655 19.8844 8.17624 18.5643 8.03609C18.3419 8.01248 18.1309 8.13937 18.0476 8.34685L17.2 10.4559C16.7736 10.4055 16.3574 10.38 15.9396 10.38C15.5216 10.38 15.1053 10.4055 14.6789 10.4559L13.8313 8.34685C13.7477 8.13882 13.5358 8.01187 13.3129 8.03626C12.0221 8.17754 10.7294 8.47093 9.44055 9.40904C9.35687 9.46994 9.29415 9.55532 9.26105 9.65338C8.43482 12.1011 7.98334 14.2356 7.80892 15.9493C7.63643 17.6441 7.7289 18.9832 8.04354 19.8053C8.04835 19.8179 8.05368 19.8303 8.0595 19.8425C8.34947 20.4484 8.78714 21.1383 9.32879 21.6851C9.86167 22.223 10.5609 22.6866 11.368 22.6866C11.5734 22.6866 11.7403 22.5889 11.8345 22.5247C11.9441 22.4499 12.0496 22.3536 12.1463 22.2529C12.3412 22.0498 12.5444 21.782 12.7274 21.4963C12.9112 21.2094 13.0842 20.8895 13.2129 20.5771C13.2745 20.4277 13.3303 20.2697 13.371 20.1107ZM20.7516 21.7038C20.7516 21.7039 20.7498 21.7032 20.7459 21.7012C20.7497 21.7026 20.7516 21.7036 20.7516 21.7038ZM11.2513 21.7104C11.2513 21.7102 11.2537 21.7088 11.2583 21.7067C11.2535 21.7096 11.2512 21.7106 11.2513 21.7104Z" fill="#621AE1"/>
</svg>
