<svg width="31" height="31" viewBox="0 0 31 31" fill="none" xmlns="http://www.w3.org/2000/svg">
<circle cx="15" cy="15" r="12" fill="#F5F5FB"/>
<path d="M15.3768 0C6.88525 0 0 6.87771 0 15.36C0 23.8423 6.88525 30.72 15.3768 30.72C23.8684 30.72 30.7536 23.8423 30.7536 15.36C30.7536 6.87771 23.8684 0 15.3768 0ZM22.7666 11.5783C22.7769 11.7394 22.7769 11.9074 22.7769 12.072C22.7769 17.1051 18.9396 22.9029 11.9273 22.9029C9.76497 22.9029 7.76049 22.2754 6.07178 21.1954C6.38069 21.2297 6.67587 21.2434 6.99165 21.2434C8.77646 21.2434 10.4171 20.64 11.7248 19.6183C10.0498 19.584 8.6426 18.4869 8.16207 16.9783C8.749 17.064 9.27758 17.064 9.88167 16.9097C9.01921 16.7347 8.24402 16.2668 7.68778 15.5855C7.13154 14.9043 6.82857 14.0517 6.83033 13.1726V13.1246C7.33488 13.4091 7.92867 13.584 8.54992 13.608C8.02767 13.2603 7.59937 12.7893 7.303 12.2367C7.00663 11.6841 6.85135 11.0669 6.85092 10.44C6.85092 9.73029 7.03627 9.08228 7.3692 8.52C8.32649 9.69715 9.52103 10.6599 10.8752 11.3457C12.2294 12.0315 13.7129 12.425 15.2292 12.5006C14.6904 9.912 16.6262 7.81714 18.9533 7.81714C20.0516 7.81714 21.0402 8.27657 21.7369 9.01714C22.5984 8.856 23.4222 8.53371 24.1567 8.10171C23.8718 8.98286 23.2746 9.72686 22.4817 10.1966C23.2506 10.1143 23.992 9.90171 24.6784 9.60343C24.1601 10.3646 23.5114 11.04 22.7666 11.5783Z" fill="#621AE1"/>
</svg>
