<svg width="32" height="31" viewBox="0 0 32 31" fill="none" xmlns="http://www.w3.org/2000/svg">
<circle cx="15.7539" cy="15.2798" r="12" fill="#F5F5FB"/>
<path d="M16.1307 0C7.63578 0 0.753906 6.87533 0.753906 15.36C0.753906 23.8447 7.63677 30.72 16.1307 30.72C24.6257 30.72 31.5075 23.8447 31.5075 15.36C31.5075 6.87533 24.6247 0 16.1307 0ZM23.6832 10.5231L21.1594 22.4028C20.9729 23.2451 20.471 23.4493 19.7706 23.0529L15.9264 20.2227L14.0722 22.0064C13.8679 22.2106 13.6942 22.384 13.2974 22.384L13.5702 18.4756L20.6942 12.0462C21.0047 11.7737 20.6257 11.6191 20.216 11.8916L11.4115 17.4281L7.61693 16.2449C6.79253 15.9853 6.77368 15.4214 7.79054 15.0251L22.6158 9.31411C23.3043 9.06636 23.9054 9.48158 23.6822 10.5221L23.6832 10.5231Z" fill="#621AE1"/>
</svg>
