<svg width="16" height="17" viewBox="0 0 16 17" fill="none" xmlns="http://www.w3.org/2000/svg">
<path d="M15.36 0.5H0.64C0.286 0.5 0 0.786 0 1.14V15.86C0 16.214 0.286 16.5 0.64 16.5H15.36C15.714 16.5 16 16.214 16 15.86V1.14C16 0.786 15.714 0.5 15.36 0.5ZM14.72 9.78H8.32V7.22H14.72V9.78ZM9.36 8.5C9.36 8.71217 9.44428 8.91566 9.59431 9.06569C9.74434 9.21572 9.94783 9.3 10.16 9.3C10.3722 9.3 10.5757 9.21572 10.7257 9.06569C10.8757 8.91566 10.96 8.71217 10.96 8.5C10.96 8.28783 10.8757 8.08434 10.7257 7.93431C10.5757 7.78429 10.3722 7.7 10.16 7.7C9.94783 7.7 9.74434 7.78429 9.59431 7.93431C9.44428 8.08434 9.36 8.28783 9.36 8.5Z" fill="#651CE4"/>
</svg>
